<mxfile host="app.diagrams.net" modified="2024-04-19T04:56:43.391Z" agent="Mozilla/5.0 (Windows NT 10.0; Win64; x64) AppleWebKit/537.36 (KHTML, like Gecko) Chrome/123.0.0.0 Safari/537.36" etag="ergbkCj2OeifrB-DKHkY" version="24.2.5" type="device">
  <diagram id="R2lEEEUBdFMjLlhIrx00" name="Page-1">
    <mxGraphModel dx="2950" dy="2306" grid="1" gridSize="10" guides="1" tooltips="1" connect="1" arrows="1" fold="1" page="1" pageScale="1" pageWidth="850" pageHeight="1100" math="0" shadow="0" extFonts="Permanent Marker^https://fonts.googleapis.com/css?family=Permanent+Marker">
      <root>
        <mxCell id="0" />
        <mxCell id="1" parent="0" />
        <mxCell id="OZJzlmCqY2gpluyCW24J-557" value="College" style="shape=table;startSize=25;container=1;collapsible=0;childLayout=tableLayout;fixedRows=1;rowLines=1;fontStyle=1;align=center;resizeLast=1;" vertex="1" parent="1">
          <mxGeometry x="297" y="240" width="126" height="133" as="geometry" />
        </mxCell>
        <mxCell id="OZJzlmCqY2gpluyCW24J-558" style="shape=tableRow;horizontal=0;startSize=0;swimlaneHead=0;swimlaneBody=0;fillColor=none;collapsible=0;dropTarget=0;points=[[0,0.5],[1,0.5]];portConstraint=eastwest;top=0;left=0;right=0;bottom=0;" vertex="1" parent="OZJzlmCqY2gpluyCW24J-557">
          <mxGeometry y="25" width="126" height="20" as="geometry" />
        </mxCell>
        <mxCell id="OZJzlmCqY2gpluyCW24J-559" value="PK" style="shape=partialRectangle;connectable=0;fillColor=none;top=0;left=0;bottom=0;right=0;align=left;spacingLeft=2;overflow=hidden;fontSize=11;" vertex="1" parent="OZJzlmCqY2gpluyCW24J-558">
          <mxGeometry width="36" height="20" as="geometry">
            <mxRectangle width="36" height="20" as="alternateBounds" />
          </mxGeometry>
        </mxCell>
        <mxCell id="OZJzlmCqY2gpluyCW24J-560" value="CollegeID" style="shape=partialRectangle;connectable=0;fillColor=none;top=0;left=0;bottom=0;right=0;align=left;spacingLeft=2;overflow=hidden;fontSize=11;fontStyle=5" vertex="1" parent="OZJzlmCqY2gpluyCW24J-558">
          <mxGeometry x="36" width="90" height="20" as="geometry">
            <mxRectangle width="90" height="20" as="alternateBounds" />
          </mxGeometry>
        </mxCell>
        <mxCell id="OZJzlmCqY2gpluyCW24J-561" style="shape=tableRow;horizontal=0;startSize=0;swimlaneHead=0;swimlaneBody=0;fillColor=none;collapsible=0;dropTarget=0;points=[[0,0.5],[1,0.5]];portConstraint=eastwest;top=0;left=0;right=0;bottom=0;" vertex="1" parent="OZJzlmCqY2gpluyCW24J-557">
          <mxGeometry y="45" width="126" height="22" as="geometry" />
        </mxCell>
        <mxCell id="OZJzlmCqY2gpluyCW24J-562" value="" style="shape=partialRectangle;connectable=0;fillColor=none;top=0;left=0;bottom=0;right=0;align=left;spacingLeft=2;overflow=hidden;fontSize=11;" vertex="1" parent="OZJzlmCqY2gpluyCW24J-561">
          <mxGeometry width="36" height="22" as="geometry">
            <mxRectangle width="36" height="22" as="alternateBounds" />
          </mxGeometry>
        </mxCell>
        <mxCell id="OZJzlmCqY2gpluyCW24J-563" value="Name" style="shape=partialRectangle;connectable=0;fillColor=none;top=0;left=0;bottom=0;right=0;align=left;spacingLeft=2;overflow=hidden;fontSize=11;" vertex="1" parent="OZJzlmCqY2gpluyCW24J-561">
          <mxGeometry x="36" width="90" height="22" as="geometry">
            <mxRectangle width="90" height="22" as="alternateBounds" />
          </mxGeometry>
        </mxCell>
        <mxCell id="OZJzlmCqY2gpluyCW24J-564" style="shape=tableRow;horizontal=0;startSize=0;swimlaneHead=0;swimlaneBody=0;fillColor=none;collapsible=0;dropTarget=0;points=[[0,0.5],[1,0.5]];portConstraint=eastwest;top=0;left=0;right=0;bottom=0;" vertex="1" parent="OZJzlmCqY2gpluyCW24J-557">
          <mxGeometry y="67" width="126" height="22" as="geometry" />
        </mxCell>
        <mxCell id="OZJzlmCqY2gpluyCW24J-565" value="" style="shape=partialRectangle;connectable=0;fillColor=none;top=0;left=0;bottom=0;right=0;align=left;spacingLeft=2;overflow=hidden;fontSize=11;" vertex="1" parent="OZJzlmCqY2gpluyCW24J-564">
          <mxGeometry width="36" height="22" as="geometry">
            <mxRectangle width="36" height="22" as="alternateBounds" />
          </mxGeometry>
        </mxCell>
        <mxCell id="OZJzlmCqY2gpluyCW24J-566" value="Address" style="shape=partialRectangle;connectable=0;fillColor=none;top=0;left=0;bottom=0;right=0;align=left;spacingLeft=2;overflow=hidden;fontSize=11;" vertex="1" parent="OZJzlmCqY2gpluyCW24J-564">
          <mxGeometry x="36" width="90" height="22" as="geometry">
            <mxRectangle width="90" height="22" as="alternateBounds" />
          </mxGeometry>
        </mxCell>
        <mxCell id="OZJzlmCqY2gpluyCW24J-567" style="shape=tableRow;horizontal=0;startSize=0;swimlaneHead=0;swimlaneBody=0;fillColor=none;collapsible=0;dropTarget=0;points=[[0,0.5],[1,0.5]];portConstraint=eastwest;top=0;left=0;right=0;bottom=0;" vertex="1" parent="OZJzlmCqY2gpluyCW24J-557">
          <mxGeometry y="89" width="126" height="22" as="geometry" />
        </mxCell>
        <mxCell id="OZJzlmCqY2gpluyCW24J-568" value="" style="shape=partialRectangle;connectable=0;fillColor=none;top=0;left=0;bottom=0;right=0;align=left;spacingLeft=2;overflow=hidden;fontSize=11;" vertex="1" parent="OZJzlmCqY2gpluyCW24J-567">
          <mxGeometry width="36" height="22" as="geometry">
            <mxRectangle width="36" height="22" as="alternateBounds" />
          </mxGeometry>
        </mxCell>
        <mxCell id="OZJzlmCqY2gpluyCW24J-569" value="ContactNumber" style="shape=partialRectangle;connectable=0;fillColor=none;top=0;left=0;bottom=0;right=0;align=left;spacingLeft=2;overflow=hidden;fontSize=11;" vertex="1" parent="OZJzlmCqY2gpluyCW24J-567">
          <mxGeometry x="36" width="90" height="22" as="geometry">
            <mxRectangle width="90" height="22" as="alternateBounds" />
          </mxGeometry>
        </mxCell>
        <mxCell id="OZJzlmCqY2gpluyCW24J-570" style="shape=tableRow;horizontal=0;startSize=0;swimlaneHead=0;swimlaneBody=0;fillColor=none;collapsible=0;dropTarget=0;points=[[0,0.5],[1,0.5]];portConstraint=eastwest;top=0;left=0;right=0;bottom=0;" vertex="1" parent="OZJzlmCqY2gpluyCW24J-557">
          <mxGeometry y="111" width="126" height="22" as="geometry" />
        </mxCell>
        <mxCell id="OZJzlmCqY2gpluyCW24J-571" value="" style="shape=partialRectangle;connectable=0;fillColor=none;top=0;left=0;bottom=0;right=0;align=left;spacingLeft=2;overflow=hidden;fontSize=11;" vertex="1" parent="OZJzlmCqY2gpluyCW24J-570">
          <mxGeometry width="36" height="22" as="geometry">
            <mxRectangle width="36" height="22" as="alternateBounds" />
          </mxGeometry>
        </mxCell>
        <mxCell id="OZJzlmCqY2gpluyCW24J-572" value="EstablishedDate" style="shape=partialRectangle;connectable=0;fillColor=none;top=0;left=0;bottom=0;right=0;align=left;spacingLeft=2;overflow=hidden;fontSize=11;" vertex="1" parent="OZJzlmCqY2gpluyCW24J-570">
          <mxGeometry x="36" width="90" height="22" as="geometry">
            <mxRectangle width="90" height="22" as="alternateBounds" />
          </mxGeometry>
        </mxCell>
        <mxCell id="OZJzlmCqY2gpluyCW24J-573" value="Department" style="shape=table;startSize=25;container=1;collapsible=0;childLayout=tableLayout;fixedRows=1;rowLines=1;fontStyle=1;align=center;resizeLast=1;" vertex="1" parent="1">
          <mxGeometry x="60" y="476" width="120" height="135" as="geometry" />
        </mxCell>
        <mxCell id="OZJzlmCqY2gpluyCW24J-574" style="shape=tableRow;horizontal=0;startSize=0;swimlaneHead=0;swimlaneBody=0;fillColor=none;collapsible=0;dropTarget=0;points=[[0,0.5],[1,0.5]];portConstraint=eastwest;top=0;left=0;right=0;bottom=0;" vertex="1" parent="OZJzlmCqY2gpluyCW24J-573">
          <mxGeometry y="25" width="120" height="22" as="geometry" />
        </mxCell>
        <mxCell id="OZJzlmCqY2gpluyCW24J-575" value="PK" style="shape=partialRectangle;connectable=0;fillColor=none;top=0;left=0;bottom=0;right=0;align=left;spacingLeft=2;overflow=hidden;fontSize=11;fontStyle=1" vertex="1" parent="OZJzlmCqY2gpluyCW24J-574">
          <mxGeometry width="36" height="22" as="geometry">
            <mxRectangle width="36" height="22" as="alternateBounds" />
          </mxGeometry>
        </mxCell>
        <mxCell id="OZJzlmCqY2gpluyCW24J-576" value="DepartmentID" style="shape=partialRectangle;connectable=0;fillColor=none;top=0;left=0;bottom=0;right=0;align=left;spacingLeft=2;overflow=hidden;fontSize=11;fontStyle=5" vertex="1" parent="OZJzlmCqY2gpluyCW24J-574">
          <mxGeometry x="36" width="84" height="22" as="geometry">
            <mxRectangle width="84" height="22" as="alternateBounds" />
          </mxGeometry>
        </mxCell>
        <mxCell id="OZJzlmCqY2gpluyCW24J-577" style="shape=tableRow;horizontal=0;startSize=0;swimlaneHead=0;swimlaneBody=0;fillColor=none;collapsible=0;dropTarget=0;points=[[0,0.5],[1,0.5]];portConstraint=eastwest;top=0;left=0;right=0;bottom=0;" vertex="1" parent="OZJzlmCqY2gpluyCW24J-573">
          <mxGeometry y="47" width="120" height="22" as="geometry" />
        </mxCell>
        <mxCell id="OZJzlmCqY2gpluyCW24J-578" value="" style="shape=partialRectangle;connectable=0;fillColor=none;top=0;left=0;bottom=0;right=0;align=left;spacingLeft=2;overflow=hidden;fontSize=11;" vertex="1" parent="OZJzlmCqY2gpluyCW24J-577">
          <mxGeometry width="36" height="22" as="geometry">
            <mxRectangle width="36" height="22" as="alternateBounds" />
          </mxGeometry>
        </mxCell>
        <mxCell id="OZJzlmCqY2gpluyCW24J-579" value="Name" style="shape=partialRectangle;connectable=0;fillColor=none;top=0;left=0;bottom=0;right=0;align=left;spacingLeft=2;overflow=hidden;fontSize=11;" vertex="1" parent="OZJzlmCqY2gpluyCW24J-577">
          <mxGeometry x="36" width="84" height="22" as="geometry">
            <mxRectangle width="84" height="22" as="alternateBounds" />
          </mxGeometry>
        </mxCell>
        <mxCell id="OZJzlmCqY2gpluyCW24J-580" style="shape=tableRow;horizontal=0;startSize=0;swimlaneHead=0;swimlaneBody=0;fillColor=none;collapsible=0;dropTarget=0;points=[[0,0.5],[1,0.5]];portConstraint=eastwest;top=0;left=0;right=0;bottom=0;" vertex="1" parent="OZJzlmCqY2gpluyCW24J-573">
          <mxGeometry y="69" width="120" height="22" as="geometry" />
        </mxCell>
        <mxCell id="OZJzlmCqY2gpluyCW24J-581" value="FK" style="shape=partialRectangle;connectable=0;fillColor=none;top=0;left=0;bottom=0;right=0;align=left;spacingLeft=2;overflow=hidden;fontSize=11;fontStyle=1" vertex="1" parent="OZJzlmCqY2gpluyCW24J-580">
          <mxGeometry width="36" height="22" as="geometry">
            <mxRectangle width="36" height="22" as="alternateBounds" />
          </mxGeometry>
        </mxCell>
        <mxCell id="OZJzlmCqY2gpluyCW24J-582" value="CollegeID" style="shape=partialRectangle;connectable=0;fillColor=none;top=0;left=0;bottom=0;right=0;align=left;spacingLeft=2;overflow=hidden;fontSize=11;" vertex="1" parent="OZJzlmCqY2gpluyCW24J-580">
          <mxGeometry x="36" width="84" height="22" as="geometry">
            <mxRectangle width="84" height="22" as="alternateBounds" />
          </mxGeometry>
        </mxCell>
        <mxCell id="OZJzlmCqY2gpluyCW24J-583" style="shape=tableRow;horizontal=0;startSize=0;swimlaneHead=0;swimlaneBody=0;fillColor=none;collapsible=0;dropTarget=0;points=[[0,0.5],[1,0.5]];portConstraint=eastwest;top=0;left=0;right=0;bottom=0;" vertex="1" parent="OZJzlmCqY2gpluyCW24J-573">
          <mxGeometry y="91" width="120" height="22" as="geometry" />
        </mxCell>
        <mxCell id="OZJzlmCqY2gpluyCW24J-584" value="" style="shape=partialRectangle;connectable=0;fillColor=none;top=0;left=0;bottom=0;right=0;align=left;spacingLeft=2;overflow=hidden;fontSize=11;" vertex="1" parent="OZJzlmCqY2gpluyCW24J-583">
          <mxGeometry width="36" height="22" as="geometry">
            <mxRectangle width="36" height="22" as="alternateBounds" />
          </mxGeometry>
        </mxCell>
        <mxCell id="OZJzlmCqY2gpluyCW24J-585" value="HOD" style="shape=partialRectangle;connectable=0;fillColor=none;top=0;left=0;bottom=0;right=0;align=left;spacingLeft=2;overflow=hidden;fontSize=11;" vertex="1" parent="OZJzlmCqY2gpluyCW24J-583">
          <mxGeometry x="36" width="84" height="22" as="geometry">
            <mxRectangle width="84" height="22" as="alternateBounds" />
          </mxGeometry>
        </mxCell>
        <mxCell id="OZJzlmCqY2gpluyCW24J-586" style="shape=tableRow;horizontal=0;startSize=0;swimlaneHead=0;swimlaneBody=0;fillColor=none;collapsible=0;dropTarget=0;points=[[0,0.5],[1,0.5]];portConstraint=eastwest;top=0;left=0;right=0;bottom=0;" vertex="1" parent="OZJzlmCqY2gpluyCW24J-573">
          <mxGeometry y="113" width="120" height="22" as="geometry" />
        </mxCell>
        <mxCell id="OZJzlmCqY2gpluyCW24J-587" value="" style="shape=partialRectangle;connectable=0;fillColor=none;top=0;left=0;bottom=0;right=0;align=left;spacingLeft=2;overflow=hidden;fontSize=11;" vertex="1" parent="OZJzlmCqY2gpluyCW24J-586">
          <mxGeometry width="36" height="22" as="geometry">
            <mxRectangle width="36" height="22" as="alternateBounds" />
          </mxGeometry>
        </mxCell>
        <mxCell id="OZJzlmCqY2gpluyCW24J-588" value="OfficeNumber" style="shape=partialRectangle;connectable=0;fillColor=none;top=0;left=0;bottom=0;right=0;align=left;spacingLeft=2;overflow=hidden;fontSize=11;" vertex="1" parent="OZJzlmCqY2gpluyCW24J-586">
          <mxGeometry x="36" width="84" height="22" as="geometry">
            <mxRectangle width="84" height="22" as="alternateBounds" />
          </mxGeometry>
        </mxCell>
        <mxCell id="OZJzlmCqY2gpluyCW24J-589" value="Course" style="shape=table;startSize=25;container=1;collapsible=0;childLayout=tableLayout;fixedRows=1;rowLines=1;fontStyle=1;align=center;resizeLast=1;" vertex="1" parent="1">
          <mxGeometry x="200" y="1480" width="124" height="179" as="geometry" />
        </mxCell>
        <mxCell id="OZJzlmCqY2gpluyCW24J-590" style="shape=tableRow;horizontal=0;startSize=0;swimlaneHead=0;swimlaneBody=0;fillColor=none;collapsible=0;dropTarget=0;points=[[0,0.5],[1,0.5]];portConstraint=eastwest;top=0;left=0;right=0;bottom=0;" vertex="1" parent="OZJzlmCqY2gpluyCW24J-589">
          <mxGeometry y="25" width="124" height="22" as="geometry" />
        </mxCell>
        <mxCell id="OZJzlmCqY2gpluyCW24J-591" value="PK" style="shape=partialRectangle;connectable=0;fillColor=none;top=0;left=0;bottom=0;right=0;align=left;spacingLeft=2;overflow=hidden;fontSize=11;fontStyle=1" vertex="1" parent="OZJzlmCqY2gpluyCW24J-590">
          <mxGeometry width="36" height="22" as="geometry">
            <mxRectangle width="36" height="22" as="alternateBounds" />
          </mxGeometry>
        </mxCell>
        <mxCell id="OZJzlmCqY2gpluyCW24J-592" value="CourseID" style="shape=partialRectangle;connectable=0;fillColor=none;top=0;left=0;bottom=0;right=0;align=left;spacingLeft=2;overflow=hidden;fontSize=11;fontStyle=5" vertex="1" parent="OZJzlmCqY2gpluyCW24J-590">
          <mxGeometry x="36" width="88" height="22" as="geometry">
            <mxRectangle width="88" height="22" as="alternateBounds" />
          </mxGeometry>
        </mxCell>
        <mxCell id="OZJzlmCqY2gpluyCW24J-593" style="shape=tableRow;horizontal=0;startSize=0;swimlaneHead=0;swimlaneBody=0;fillColor=none;collapsible=0;dropTarget=0;points=[[0,0.5],[1,0.5]];portConstraint=eastwest;top=0;left=0;right=0;bottom=0;" vertex="1" parent="OZJzlmCqY2gpluyCW24J-589">
          <mxGeometry y="47" width="124" height="22" as="geometry" />
        </mxCell>
        <mxCell id="OZJzlmCqY2gpluyCW24J-594" value="                                                    " style="shape=partialRectangle;connectable=0;fillColor=none;top=0;left=0;bottom=0;right=0;align=left;spacingLeft=2;overflow=hidden;fontSize=11;" vertex="1" parent="OZJzlmCqY2gpluyCW24J-593">
          <mxGeometry width="36" height="22" as="geometry">
            <mxRectangle width="36" height="22" as="alternateBounds" />
          </mxGeometry>
        </mxCell>
        <mxCell id="OZJzlmCqY2gpluyCW24J-595" value="Name" style="shape=partialRectangle;connectable=0;fillColor=none;top=0;left=0;bottom=0;right=0;align=left;spacingLeft=2;overflow=hidden;fontSize=11;" vertex="1" parent="OZJzlmCqY2gpluyCW24J-593">
          <mxGeometry x="36" width="88" height="22" as="geometry">
            <mxRectangle width="88" height="22" as="alternateBounds" />
          </mxGeometry>
        </mxCell>
        <mxCell id="OZJzlmCqY2gpluyCW24J-596" style="shape=tableRow;horizontal=0;startSize=0;swimlaneHead=0;swimlaneBody=0;fillColor=none;collapsible=0;dropTarget=0;points=[[0,0.5],[1,0.5]];portConstraint=eastwest;top=0;left=0;right=0;bottom=0;" vertex="1" parent="OZJzlmCqY2gpluyCW24J-589">
          <mxGeometry y="69" width="124" height="22" as="geometry" />
        </mxCell>
        <mxCell id="OZJzlmCqY2gpluyCW24J-597" value="" style="shape=partialRectangle;connectable=0;fillColor=none;top=0;left=0;bottom=0;right=0;align=left;spacingLeft=2;overflow=hidden;fontSize=11;" vertex="1" parent="OZJzlmCqY2gpluyCW24J-596">
          <mxGeometry width="36" height="22" as="geometry">
            <mxRectangle width="36" height="22" as="alternateBounds" />
          </mxGeometry>
        </mxCell>
        <mxCell id="OZJzlmCqY2gpluyCW24J-598" value="Description" style="shape=partialRectangle;connectable=0;fillColor=none;top=0;left=0;bottom=0;right=0;align=left;spacingLeft=2;overflow=hidden;fontSize=11;" vertex="1" parent="OZJzlmCqY2gpluyCW24J-596">
          <mxGeometry x="36" width="88" height="22" as="geometry">
            <mxRectangle width="88" height="22" as="alternateBounds" />
          </mxGeometry>
        </mxCell>
        <mxCell id="OZJzlmCqY2gpluyCW24J-599" style="shape=tableRow;horizontal=0;startSize=0;swimlaneHead=0;swimlaneBody=0;fillColor=none;collapsible=0;dropTarget=0;points=[[0,0.5],[1,0.5]];portConstraint=eastwest;top=0;left=0;right=0;bottom=0;" vertex="1" parent="OZJzlmCqY2gpluyCW24J-589">
          <mxGeometry y="91" width="124" height="22" as="geometry" />
        </mxCell>
        <mxCell id="OZJzlmCqY2gpluyCW24J-600" value="" style="shape=partialRectangle;connectable=0;fillColor=none;top=0;left=0;bottom=0;right=0;align=left;spacingLeft=2;overflow=hidden;fontSize=11;" vertex="1" parent="OZJzlmCqY2gpluyCW24J-599">
          <mxGeometry width="36" height="22" as="geometry">
            <mxRectangle width="36" height="22" as="alternateBounds" />
          </mxGeometry>
        </mxCell>
        <mxCell id="OZJzlmCqY2gpluyCW24J-601" value="Credits" style="shape=partialRectangle;connectable=0;fillColor=none;top=0;left=0;bottom=0;right=0;align=left;spacingLeft=2;overflow=hidden;fontSize=11;" vertex="1" parent="OZJzlmCqY2gpluyCW24J-599">
          <mxGeometry x="36" width="88" height="22" as="geometry">
            <mxRectangle width="88" height="22" as="alternateBounds" />
          </mxGeometry>
        </mxCell>
        <mxCell id="OZJzlmCqY2gpluyCW24J-602" style="shape=tableRow;horizontal=0;startSize=0;swimlaneHead=0;swimlaneBody=0;fillColor=none;collapsible=0;dropTarget=0;points=[[0,0.5],[1,0.5]];portConstraint=eastwest;top=0;left=0;right=0;bottom=0;" vertex="1" parent="OZJzlmCqY2gpluyCW24J-589">
          <mxGeometry y="113" width="124" height="22" as="geometry" />
        </mxCell>
        <mxCell id="OZJzlmCqY2gpluyCW24J-603" value="FK" style="shape=partialRectangle;connectable=0;fillColor=none;top=0;left=0;bottom=0;right=0;align=left;spacingLeft=2;overflow=hidden;fontSize=11;fontStyle=1" vertex="1" parent="OZJzlmCqY2gpluyCW24J-602">
          <mxGeometry width="36" height="22" as="geometry">
            <mxRectangle width="36" height="22" as="alternateBounds" />
          </mxGeometry>
        </mxCell>
        <mxCell id="OZJzlmCqY2gpluyCW24J-604" value="DepartmentID" style="shape=partialRectangle;connectable=0;fillColor=none;top=0;left=0;bottom=0;right=0;align=left;spacingLeft=2;overflow=hidden;fontSize=11;" vertex="1" parent="OZJzlmCqY2gpluyCW24J-602">
          <mxGeometry x="36" width="88" height="22" as="geometry">
            <mxRectangle width="88" height="22" as="alternateBounds" />
          </mxGeometry>
        </mxCell>
        <mxCell id="OZJzlmCqY2gpluyCW24J-605" style="shape=tableRow;horizontal=0;startSize=0;swimlaneHead=0;swimlaneBody=0;fillColor=none;collapsible=0;dropTarget=0;points=[[0,0.5],[1,0.5]];portConstraint=eastwest;top=0;left=0;right=0;bottom=0;" vertex="1" parent="OZJzlmCqY2gpluyCW24J-589">
          <mxGeometry y="135" width="124" height="22" as="geometry" />
        </mxCell>
        <mxCell id="OZJzlmCqY2gpluyCW24J-606" value="" style="shape=partialRectangle;connectable=0;fillColor=none;top=0;left=0;bottom=0;right=0;align=left;spacingLeft=2;overflow=hidden;fontSize=11;" vertex="1" parent="OZJzlmCqY2gpluyCW24J-605">
          <mxGeometry width="36" height="22" as="geometry">
            <mxRectangle width="36" height="22" as="alternateBounds" />
          </mxGeometry>
        </mxCell>
        <mxCell id="OZJzlmCqY2gpluyCW24J-607" value="Semester" style="shape=partialRectangle;connectable=0;fillColor=none;top=0;left=0;bottom=0;right=0;align=left;spacingLeft=2;overflow=hidden;fontSize=11;" vertex="1" parent="OZJzlmCqY2gpluyCW24J-605">
          <mxGeometry x="36" width="88" height="22" as="geometry">
            <mxRectangle width="88" height="22" as="alternateBounds" />
          </mxGeometry>
        </mxCell>
        <mxCell id="OZJzlmCqY2gpluyCW24J-608" style="shape=tableRow;horizontal=0;startSize=0;swimlaneHead=0;swimlaneBody=0;fillColor=none;collapsible=0;dropTarget=0;points=[[0,0.5],[1,0.5]];portConstraint=eastwest;top=0;left=0;right=0;bottom=0;" vertex="1" parent="OZJzlmCqY2gpluyCW24J-589">
          <mxGeometry y="157" width="124" height="22" as="geometry" />
        </mxCell>
        <mxCell id="OZJzlmCqY2gpluyCW24J-609" value="" style="shape=partialRectangle;connectable=0;fillColor=none;top=0;left=0;bottom=0;right=0;align=left;spacingLeft=2;overflow=hidden;fontSize=11;" vertex="1" parent="OZJzlmCqY2gpluyCW24J-608">
          <mxGeometry width="36" height="22" as="geometry">
            <mxRectangle width="36" height="22" as="alternateBounds" />
          </mxGeometry>
        </mxCell>
        <mxCell id="OZJzlmCqY2gpluyCW24J-610" value="Timeslot" style="shape=partialRectangle;connectable=0;fillColor=none;top=0;left=0;bottom=0;right=0;align=left;spacingLeft=2;overflow=hidden;fontSize=11;" vertex="1" parent="OZJzlmCqY2gpluyCW24J-608">
          <mxGeometry x="36" width="88" height="22" as="geometry">
            <mxRectangle width="88" height="22" as="alternateBounds" />
          </mxGeometry>
        </mxCell>
        <mxCell id="OZJzlmCqY2gpluyCW24J-611" value="FacultyAssignment" style="shape=table;startSize=25;container=1;collapsible=0;childLayout=tableLayout;fixedRows=1;rowLines=1;fontStyle=1;align=center;resizeLast=1;" vertex="1" parent="1">
          <mxGeometry x="610" y="1131" width="131" height="223" as="geometry" />
        </mxCell>
        <mxCell id="OZJzlmCqY2gpluyCW24J-612" style="shape=tableRow;horizontal=0;startSize=0;swimlaneHead=0;swimlaneBody=0;fillColor=none;collapsible=0;dropTarget=0;points=[[0,0.5],[1,0.5]];portConstraint=eastwest;top=0;left=0;right=0;bottom=0;" vertex="1" parent="OZJzlmCqY2gpluyCW24J-611">
          <mxGeometry y="25" width="131" height="22" as="geometry" />
        </mxCell>
        <mxCell id="OZJzlmCqY2gpluyCW24J-613" value="PK" style="shape=partialRectangle;connectable=0;fillColor=none;top=0;left=0;bottom=0;right=0;align=left;spacingLeft=2;overflow=hidden;fontSize=11;fontStyle=1" vertex="1" parent="OZJzlmCqY2gpluyCW24J-612">
          <mxGeometry width="36" height="22" as="geometry">
            <mxRectangle width="36" height="22" as="alternateBounds" />
          </mxGeometry>
        </mxCell>
        <mxCell id="OZJzlmCqY2gpluyCW24J-614" value="AssignmentID" style="shape=partialRectangle;connectable=0;fillColor=none;top=0;left=0;bottom=0;right=0;align=left;spacingLeft=2;overflow=hidden;fontSize=11;fontStyle=5" vertex="1" parent="OZJzlmCqY2gpluyCW24J-612">
          <mxGeometry x="36" width="95" height="22" as="geometry">
            <mxRectangle width="95" height="22" as="alternateBounds" />
          </mxGeometry>
        </mxCell>
        <mxCell id="OZJzlmCqY2gpluyCW24J-615" style="shape=tableRow;horizontal=0;startSize=0;swimlaneHead=0;swimlaneBody=0;fillColor=none;collapsible=0;dropTarget=0;points=[[0,0.5],[1,0.5]];portConstraint=eastwest;top=0;left=0;right=0;bottom=0;" vertex="1" parent="OZJzlmCqY2gpluyCW24J-611">
          <mxGeometry y="47" width="131" height="22" as="geometry" />
        </mxCell>
        <mxCell id="OZJzlmCqY2gpluyCW24J-616" value="FK" style="shape=partialRectangle;connectable=0;fillColor=none;top=0;left=0;bottom=0;right=0;align=left;spacingLeft=2;overflow=hidden;fontSize=11;fontStyle=1" vertex="1" parent="OZJzlmCqY2gpluyCW24J-615">
          <mxGeometry width="36" height="22" as="geometry">
            <mxRectangle width="36" height="22" as="alternateBounds" />
          </mxGeometry>
        </mxCell>
        <mxCell id="OZJzlmCqY2gpluyCW24J-617" value="FacultyID" style="shape=partialRectangle;connectable=0;fillColor=none;top=0;left=0;bottom=0;right=0;align=left;spacingLeft=2;overflow=hidden;fontSize=11;" vertex="1" parent="OZJzlmCqY2gpluyCW24J-615">
          <mxGeometry x="36" width="95" height="22" as="geometry">
            <mxRectangle width="95" height="22" as="alternateBounds" />
          </mxGeometry>
        </mxCell>
        <mxCell id="OZJzlmCqY2gpluyCW24J-618" style="shape=tableRow;horizontal=0;startSize=0;swimlaneHead=0;swimlaneBody=0;fillColor=none;collapsible=0;dropTarget=0;points=[[0,0.5],[1,0.5]];portConstraint=eastwest;top=0;left=0;right=0;bottom=0;" vertex="1" parent="OZJzlmCqY2gpluyCW24J-611">
          <mxGeometry y="69" width="131" height="22" as="geometry" />
        </mxCell>
        <mxCell id="OZJzlmCqY2gpluyCW24J-619" value="FK" style="shape=partialRectangle;connectable=0;fillColor=none;top=0;left=0;bottom=0;right=0;align=left;spacingLeft=2;overflow=hidden;fontSize=11;fontStyle=1" vertex="1" parent="OZJzlmCqY2gpluyCW24J-618">
          <mxGeometry width="36" height="22" as="geometry">
            <mxRectangle width="36" height="22" as="alternateBounds" />
          </mxGeometry>
        </mxCell>
        <mxCell id="OZJzlmCqY2gpluyCW24J-620" value="DepartmentID" style="shape=partialRectangle;connectable=0;fillColor=none;top=0;left=0;bottom=0;right=0;align=left;spacingLeft=2;overflow=hidden;fontSize=11;" vertex="1" parent="OZJzlmCqY2gpluyCW24J-618">
          <mxGeometry x="36" width="95" height="22" as="geometry">
            <mxRectangle width="95" height="22" as="alternateBounds" />
          </mxGeometry>
        </mxCell>
        <mxCell id="OZJzlmCqY2gpluyCW24J-621" style="shape=tableRow;horizontal=0;startSize=0;swimlaneHead=0;swimlaneBody=0;fillColor=none;collapsible=0;dropTarget=0;points=[[0,0.5],[1,0.5]];portConstraint=eastwest;top=0;left=0;right=0;bottom=0;" vertex="1" parent="OZJzlmCqY2gpluyCW24J-611">
          <mxGeometry y="91" width="131" height="22" as="geometry" />
        </mxCell>
        <mxCell id="OZJzlmCqY2gpluyCW24J-622" value="FK" style="shape=partialRectangle;connectable=0;fillColor=none;top=0;left=0;bottom=0;right=0;align=left;spacingLeft=2;overflow=hidden;fontSize=11;fontStyle=1" vertex="1" parent="OZJzlmCqY2gpluyCW24J-621">
          <mxGeometry width="36" height="22" as="geometry">
            <mxRectangle width="36" height="22" as="alternateBounds" />
          </mxGeometry>
        </mxCell>
        <mxCell id="OZJzlmCqY2gpluyCW24J-623" value="CourseID" style="shape=partialRectangle;connectable=0;fillColor=none;top=0;left=0;bottom=0;right=0;align=left;spacingLeft=2;overflow=hidden;fontSize=11;" vertex="1" parent="OZJzlmCqY2gpluyCW24J-621">
          <mxGeometry x="36" width="95" height="22" as="geometry">
            <mxRectangle width="95" height="22" as="alternateBounds" />
          </mxGeometry>
        </mxCell>
        <mxCell id="OZJzlmCqY2gpluyCW24J-624" style="shape=tableRow;horizontal=0;startSize=0;swimlaneHead=0;swimlaneBody=0;fillColor=none;collapsible=0;dropTarget=0;points=[[0,0.5],[1,0.5]];portConstraint=eastwest;top=0;left=0;right=0;bottom=0;" vertex="1" parent="OZJzlmCqY2gpluyCW24J-611">
          <mxGeometry y="113" width="131" height="22" as="geometry" />
        </mxCell>
        <mxCell id="OZJzlmCqY2gpluyCW24J-625" value="" style="shape=partialRectangle;connectable=0;fillColor=none;top=0;left=0;bottom=0;right=0;align=left;spacingLeft=2;overflow=hidden;fontSize=11;" vertex="1" parent="OZJzlmCqY2gpluyCW24J-624">
          <mxGeometry width="36" height="22" as="geometry">
            <mxRectangle width="36" height="22" as="alternateBounds" />
          </mxGeometry>
        </mxCell>
        <mxCell id="OZJzlmCqY2gpluyCW24J-626" value="StartDate" style="shape=partialRectangle;connectable=0;fillColor=none;top=0;left=0;bottom=0;right=0;align=left;spacingLeft=2;overflow=hidden;fontSize=11;" vertex="1" parent="OZJzlmCqY2gpluyCW24J-624">
          <mxGeometry x="36" width="95" height="22" as="geometry">
            <mxRectangle width="95" height="22" as="alternateBounds" />
          </mxGeometry>
        </mxCell>
        <mxCell id="OZJzlmCqY2gpluyCW24J-627" style="shape=tableRow;horizontal=0;startSize=0;swimlaneHead=0;swimlaneBody=0;fillColor=none;collapsible=0;dropTarget=0;points=[[0,0.5],[1,0.5]];portConstraint=eastwest;top=0;left=0;right=0;bottom=0;" vertex="1" parent="OZJzlmCqY2gpluyCW24J-611">
          <mxGeometry y="135" width="131" height="22" as="geometry" />
        </mxCell>
        <mxCell id="OZJzlmCqY2gpluyCW24J-628" value="" style="shape=partialRectangle;connectable=0;fillColor=none;top=0;left=0;bottom=0;right=0;align=left;spacingLeft=2;overflow=hidden;fontSize=11;" vertex="1" parent="OZJzlmCqY2gpluyCW24J-627">
          <mxGeometry width="36" height="22" as="geometry">
            <mxRectangle width="36" height="22" as="alternateBounds" />
          </mxGeometry>
        </mxCell>
        <mxCell id="OZJzlmCqY2gpluyCW24J-629" value="EndDate" style="shape=partialRectangle;connectable=0;fillColor=none;top=0;left=0;bottom=0;right=0;align=left;spacingLeft=2;overflow=hidden;fontSize=11;" vertex="1" parent="OZJzlmCqY2gpluyCW24J-627">
          <mxGeometry x="36" width="95" height="22" as="geometry">
            <mxRectangle width="95" height="22" as="alternateBounds" />
          </mxGeometry>
        </mxCell>
        <mxCell id="OZJzlmCqY2gpluyCW24J-630" style="shape=tableRow;horizontal=0;startSize=0;swimlaneHead=0;swimlaneBody=0;fillColor=none;collapsible=0;dropTarget=0;points=[[0,0.5],[1,0.5]];portConstraint=eastwest;top=0;left=0;right=0;bottom=0;" vertex="1" parent="OZJzlmCqY2gpluyCW24J-611">
          <mxGeometry y="157" width="131" height="22" as="geometry" />
        </mxCell>
        <mxCell id="OZJzlmCqY2gpluyCW24J-631" value="" style="shape=partialRectangle;connectable=0;fillColor=none;top=0;left=0;bottom=0;right=0;align=left;spacingLeft=2;overflow=hidden;fontSize=11;" vertex="1" parent="OZJzlmCqY2gpluyCW24J-630">
          <mxGeometry width="36" height="22" as="geometry">
            <mxRectangle width="36" height="22" as="alternateBounds" />
          </mxGeometry>
        </mxCell>
        <mxCell id="OZJzlmCqY2gpluyCW24J-632" value="RecurringType" style="shape=partialRectangle;connectable=0;fillColor=none;top=0;left=0;bottom=0;right=0;align=left;spacingLeft=2;overflow=hidden;fontSize=11;" vertex="1" parent="OZJzlmCqY2gpluyCW24J-630">
          <mxGeometry x="36" width="95" height="22" as="geometry">
            <mxRectangle width="95" height="22" as="alternateBounds" />
          </mxGeometry>
        </mxCell>
        <mxCell id="OZJzlmCqY2gpluyCW24J-633" style="shape=tableRow;horizontal=0;startSize=0;swimlaneHead=0;swimlaneBody=0;fillColor=none;collapsible=0;dropTarget=0;points=[[0,0.5],[1,0.5]];portConstraint=eastwest;top=0;left=0;right=0;bottom=0;" vertex="1" parent="OZJzlmCqY2gpluyCW24J-611">
          <mxGeometry y="179" width="131" height="22" as="geometry" />
        </mxCell>
        <mxCell id="OZJzlmCqY2gpluyCW24J-634" value="" style="shape=partialRectangle;connectable=0;fillColor=none;top=0;left=0;bottom=0;right=0;align=left;spacingLeft=2;overflow=hidden;fontSize=11;" vertex="1" parent="OZJzlmCqY2gpluyCW24J-633">
          <mxGeometry width="36" height="22" as="geometry">
            <mxRectangle width="36" height="22" as="alternateBounds" />
          </mxGeometry>
        </mxCell>
        <mxCell id="OZJzlmCqY2gpluyCW24J-635" value="DaysOfWeek" style="shape=partialRectangle;connectable=0;fillColor=none;top=0;left=0;bottom=0;right=0;align=left;spacingLeft=2;overflow=hidden;fontSize=11;" vertex="1" parent="OZJzlmCqY2gpluyCW24J-633">
          <mxGeometry x="36" width="95" height="22" as="geometry">
            <mxRectangle width="95" height="22" as="alternateBounds" />
          </mxGeometry>
        </mxCell>
        <mxCell id="OZJzlmCqY2gpluyCW24J-636" style="shape=tableRow;horizontal=0;startSize=0;swimlaneHead=0;swimlaneBody=0;fillColor=none;collapsible=0;dropTarget=0;points=[[0,0.5],[1,0.5]];portConstraint=eastwest;top=0;left=0;right=0;bottom=0;" vertex="1" parent="OZJzlmCqY2gpluyCW24J-611">
          <mxGeometry y="201" width="131" height="22" as="geometry" />
        </mxCell>
        <mxCell id="OZJzlmCqY2gpluyCW24J-637" value="" style="shape=partialRectangle;connectable=0;fillColor=none;top=0;left=0;bottom=0;right=0;align=left;spacingLeft=2;overflow=hidden;fontSize=11;" vertex="1" parent="OZJzlmCqY2gpluyCW24J-636">
          <mxGeometry width="36" height="22" as="geometry">
            <mxRectangle width="36" height="22" as="alternateBounds" />
          </mxGeometry>
        </mxCell>
        <mxCell id="OZJzlmCqY2gpluyCW24J-638" value="Timeslot" style="shape=partialRectangle;connectable=0;fillColor=none;top=0;left=0;bottom=0;right=0;align=left;spacingLeft=2;overflow=hidden;fontSize=11;" vertex="1" parent="OZJzlmCqY2gpluyCW24J-636">
          <mxGeometry x="36" width="95" height="22" as="geometry">
            <mxRectangle width="95" height="22" as="alternateBounds" />
          </mxGeometry>
        </mxCell>
        <mxCell id="OZJzlmCqY2gpluyCW24J-639" value="Enrollment" style="shape=table;startSize=25;container=1;collapsible=0;childLayout=tableLayout;fixedRows=1;rowLines=1;fontStyle=1;align=center;resizeLast=1;" vertex="1" parent="1">
          <mxGeometry x="778" y="1540" width="131" height="157" as="geometry" />
        </mxCell>
        <mxCell id="OZJzlmCqY2gpluyCW24J-640" style="shape=tableRow;horizontal=0;startSize=0;swimlaneHead=0;swimlaneBody=0;fillColor=none;collapsible=0;dropTarget=0;points=[[0,0.5],[1,0.5]];portConstraint=eastwest;top=0;left=0;right=0;bottom=0;" vertex="1" parent="OZJzlmCqY2gpluyCW24J-639">
          <mxGeometry y="25" width="131" height="22" as="geometry" />
        </mxCell>
        <mxCell id="OZJzlmCqY2gpluyCW24J-641" value="PK" style="shape=partialRectangle;connectable=0;fillColor=none;top=0;left=0;bottom=0;right=0;align=left;spacingLeft=2;overflow=hidden;fontSize=11;fontStyle=1" vertex="1" parent="OZJzlmCqY2gpluyCW24J-640">
          <mxGeometry width="36" height="22" as="geometry">
            <mxRectangle width="36" height="22" as="alternateBounds" />
          </mxGeometry>
        </mxCell>
        <mxCell id="OZJzlmCqY2gpluyCW24J-642" value="EnrollmentID" style="shape=partialRectangle;connectable=0;fillColor=none;top=0;left=0;bottom=0;right=0;align=left;spacingLeft=2;overflow=hidden;fontSize=11;fontStyle=5" vertex="1" parent="OZJzlmCqY2gpluyCW24J-640">
          <mxGeometry x="36" width="95" height="22" as="geometry">
            <mxRectangle width="95" height="22" as="alternateBounds" />
          </mxGeometry>
        </mxCell>
        <mxCell id="OZJzlmCqY2gpluyCW24J-643" style="shape=tableRow;horizontal=0;startSize=0;swimlaneHead=0;swimlaneBody=0;fillColor=none;collapsible=0;dropTarget=0;points=[[0,0.5],[1,0.5]];portConstraint=eastwest;top=0;left=0;right=0;bottom=0;" vertex="1" parent="OZJzlmCqY2gpluyCW24J-639">
          <mxGeometry y="47" width="131" height="22" as="geometry" />
        </mxCell>
        <mxCell id="OZJzlmCqY2gpluyCW24J-644" value="FK" style="shape=partialRectangle;connectable=0;fillColor=none;top=0;left=0;bottom=0;right=0;align=left;spacingLeft=2;overflow=hidden;fontSize=11;fontStyle=1" vertex="1" parent="OZJzlmCqY2gpluyCW24J-643">
          <mxGeometry width="36" height="22" as="geometry">
            <mxRectangle width="36" height="22" as="alternateBounds" />
          </mxGeometry>
        </mxCell>
        <mxCell id="OZJzlmCqY2gpluyCW24J-645" value="StudentID" style="shape=partialRectangle;connectable=0;fillColor=none;top=0;left=0;bottom=0;right=0;align=left;spacingLeft=2;overflow=hidden;fontSize=11;" vertex="1" parent="OZJzlmCqY2gpluyCW24J-643">
          <mxGeometry x="36" width="95" height="22" as="geometry">
            <mxRectangle width="95" height="22" as="alternateBounds" />
          </mxGeometry>
        </mxCell>
        <mxCell id="OZJzlmCqY2gpluyCW24J-646" style="shape=tableRow;horizontal=0;startSize=0;swimlaneHead=0;swimlaneBody=0;fillColor=none;collapsible=0;dropTarget=0;points=[[0,0.5],[1,0.5]];portConstraint=eastwest;top=0;left=0;right=0;bottom=0;" vertex="1" parent="OZJzlmCqY2gpluyCW24J-639">
          <mxGeometry y="69" width="131" height="22" as="geometry" />
        </mxCell>
        <mxCell id="OZJzlmCqY2gpluyCW24J-647" value="FK" style="shape=partialRectangle;connectable=0;fillColor=none;top=0;left=0;bottom=0;right=0;align=left;spacingLeft=2;overflow=hidden;fontSize=11;fontStyle=1" vertex="1" parent="OZJzlmCqY2gpluyCW24J-646">
          <mxGeometry width="36" height="22" as="geometry">
            <mxRectangle width="36" height="22" as="alternateBounds" />
          </mxGeometry>
        </mxCell>
        <mxCell id="OZJzlmCqY2gpluyCW24J-648" value="CourseID" style="shape=partialRectangle;connectable=0;fillColor=none;top=0;left=0;bottom=0;right=0;align=left;spacingLeft=2;overflow=hidden;fontSize=11;" vertex="1" parent="OZJzlmCqY2gpluyCW24J-646">
          <mxGeometry x="36" width="95" height="22" as="geometry">
            <mxRectangle width="95" height="22" as="alternateBounds" />
          </mxGeometry>
        </mxCell>
        <mxCell id="OZJzlmCqY2gpluyCW24J-649" style="shape=tableRow;horizontal=0;startSize=0;swimlaneHead=0;swimlaneBody=0;fillColor=none;collapsible=0;dropTarget=0;points=[[0,0.5],[1,0.5]];portConstraint=eastwest;top=0;left=0;right=0;bottom=0;" vertex="1" parent="OZJzlmCqY2gpluyCW24J-639">
          <mxGeometry y="91" width="131" height="22" as="geometry" />
        </mxCell>
        <mxCell id="OZJzlmCqY2gpluyCW24J-650" value="" style="shape=partialRectangle;connectable=0;fillColor=none;top=0;left=0;bottom=0;right=0;align=left;spacingLeft=2;overflow=hidden;fontSize=11;" vertex="1" parent="OZJzlmCqY2gpluyCW24J-649">
          <mxGeometry width="36" height="22" as="geometry">
            <mxRectangle width="36" height="22" as="alternateBounds" />
          </mxGeometry>
        </mxCell>
        <mxCell id="OZJzlmCqY2gpluyCW24J-651" value="EnrollmentDate" style="shape=partialRectangle;connectable=0;fillColor=none;top=0;left=0;bottom=0;right=0;align=left;spacingLeft=2;overflow=hidden;fontSize=11;" vertex="1" parent="OZJzlmCqY2gpluyCW24J-649">
          <mxGeometry x="36" width="95" height="22" as="geometry">
            <mxRectangle width="95" height="22" as="alternateBounds" />
          </mxGeometry>
        </mxCell>
        <mxCell id="OZJzlmCqY2gpluyCW24J-652" style="shape=tableRow;horizontal=0;startSize=0;swimlaneHead=0;swimlaneBody=0;fillColor=none;collapsible=0;dropTarget=0;points=[[0,0.5],[1,0.5]];portConstraint=eastwest;top=0;left=0;right=0;bottom=0;" vertex="1" parent="OZJzlmCqY2gpluyCW24J-639">
          <mxGeometry y="113" width="131" height="22" as="geometry" />
        </mxCell>
        <mxCell id="OZJzlmCqY2gpluyCW24J-653" value="" style="shape=partialRectangle;connectable=0;fillColor=none;top=0;left=0;bottom=0;right=0;align=left;spacingLeft=2;overflow=hidden;fontSize=11;" vertex="1" parent="OZJzlmCqY2gpluyCW24J-652">
          <mxGeometry width="36" height="22" as="geometry">
            <mxRectangle width="36" height="22" as="alternateBounds" />
          </mxGeometry>
        </mxCell>
        <mxCell id="OZJzlmCqY2gpluyCW24J-654" value="Status" style="shape=partialRectangle;connectable=0;fillColor=none;top=0;left=0;bottom=0;right=0;align=left;spacingLeft=2;overflow=hidden;fontSize=11;" vertex="1" parent="OZJzlmCqY2gpluyCW24J-652">
          <mxGeometry x="36" width="95" height="22" as="geometry">
            <mxRectangle width="95" height="22" as="alternateBounds" />
          </mxGeometry>
        </mxCell>
        <mxCell id="OZJzlmCqY2gpluyCW24J-655" style="shape=tableRow;horizontal=0;startSize=0;swimlaneHead=0;swimlaneBody=0;fillColor=none;collapsible=0;dropTarget=0;points=[[0,0.5],[1,0.5]];portConstraint=eastwest;top=0;left=0;right=0;bottom=0;" vertex="1" parent="OZJzlmCqY2gpluyCW24J-639">
          <mxGeometry y="135" width="131" height="22" as="geometry" />
        </mxCell>
        <mxCell id="OZJzlmCqY2gpluyCW24J-656" value="" style="shape=partialRectangle;connectable=0;fillColor=none;top=0;left=0;bottom=0;right=0;align=left;spacingLeft=2;overflow=hidden;fontSize=11;" vertex="1" parent="OZJzlmCqY2gpluyCW24J-655">
          <mxGeometry width="36" height="22" as="geometry">
            <mxRectangle width="36" height="22" as="alternateBounds" />
          </mxGeometry>
        </mxCell>
        <mxCell id="OZJzlmCqY2gpluyCW24J-657" value="Timeslot" style="shape=partialRectangle;connectable=0;fillColor=none;top=0;left=0;bottom=0;right=0;align=left;spacingLeft=2;overflow=hidden;fontSize=11;" vertex="1" parent="OZJzlmCqY2gpluyCW24J-655">
          <mxGeometry x="36" width="95" height="22" as="geometry">
            <mxRectangle width="95" height="22" as="alternateBounds" />
          </mxGeometry>
        </mxCell>
        <mxCell id="OZJzlmCqY2gpluyCW24J-658" value="Faculty" style="shape=table;startSize=25;container=1;collapsible=0;childLayout=tableLayout;fixedRows=1;rowLines=1;fontStyle=1;align=center;resizeLast=1;" vertex="1" parent="1">
          <mxGeometry x="920" y="450" width="128" height="113" as="geometry" />
        </mxCell>
        <mxCell id="OZJzlmCqY2gpluyCW24J-659" style="shape=tableRow;horizontal=0;startSize=0;swimlaneHead=0;swimlaneBody=0;fillColor=none;collapsible=0;dropTarget=0;points=[[0,0.5],[1,0.5]];portConstraint=eastwest;top=0;left=0;right=0;bottom=0;" vertex="1" parent="OZJzlmCqY2gpluyCW24J-658">
          <mxGeometry y="25" width="128" height="22" as="geometry" />
        </mxCell>
        <mxCell id="OZJzlmCqY2gpluyCW24J-660" value="PK" style="shape=partialRectangle;connectable=0;fillColor=none;top=0;left=0;bottom=0;right=0;align=left;spacingLeft=2;overflow=hidden;fontSize=11;fontStyle=1" vertex="1" parent="OZJzlmCqY2gpluyCW24J-659">
          <mxGeometry width="36" height="22" as="geometry">
            <mxRectangle width="36" height="22" as="alternateBounds" />
          </mxGeometry>
        </mxCell>
        <mxCell id="OZJzlmCqY2gpluyCW24J-661" value="FacultyID" style="shape=partialRectangle;connectable=0;fillColor=none;top=0;left=0;bottom=0;right=0;align=left;spacingLeft=2;overflow=hidden;fontSize=11;fontStyle=5" vertex="1" parent="OZJzlmCqY2gpluyCW24J-659">
          <mxGeometry x="36" width="92" height="22" as="geometry">
            <mxRectangle width="92" height="22" as="alternateBounds" />
          </mxGeometry>
        </mxCell>
        <mxCell id="OZJzlmCqY2gpluyCW24J-668" style="shape=tableRow;horizontal=0;startSize=0;swimlaneHead=0;swimlaneBody=0;fillColor=none;collapsible=0;dropTarget=0;points=[[0,0.5],[1,0.5]];portConstraint=eastwest;top=0;left=0;right=0;bottom=0;" vertex="1" parent="OZJzlmCqY2gpluyCW24J-658">
          <mxGeometry y="47" width="128" height="22" as="geometry" />
        </mxCell>
        <mxCell id="OZJzlmCqY2gpluyCW24J-669" value="FK" style="shape=partialRectangle;connectable=0;fillColor=none;top=0;left=0;bottom=0;right=0;align=left;spacingLeft=2;overflow=hidden;fontSize=11;fontStyle=1" vertex="1" parent="OZJzlmCqY2gpluyCW24J-668">
          <mxGeometry width="36" height="22" as="geometry">
            <mxRectangle width="36" height="22" as="alternateBounds" />
          </mxGeometry>
        </mxCell>
        <mxCell id="OZJzlmCqY2gpluyCW24J-670" value="DepartmentID" style="shape=partialRectangle;connectable=0;fillColor=none;top=0;left=0;bottom=0;right=0;align=left;spacingLeft=2;overflow=hidden;fontSize=11;" vertex="1" parent="OZJzlmCqY2gpluyCW24J-668">
          <mxGeometry x="36" width="92" height="22" as="geometry">
            <mxRectangle width="92" height="22" as="alternateBounds" />
          </mxGeometry>
        </mxCell>
        <mxCell id="OZJzlmCqY2gpluyCW24J-671" style="shape=tableRow;horizontal=0;startSize=0;swimlaneHead=0;swimlaneBody=0;fillColor=none;collapsible=0;dropTarget=0;points=[[0,0.5],[1,0.5]];portConstraint=eastwest;top=0;left=0;right=0;bottom=0;" vertex="1" parent="OZJzlmCqY2gpluyCW24J-658">
          <mxGeometry y="69" width="128" height="22" as="geometry" />
        </mxCell>
        <mxCell id="OZJzlmCqY2gpluyCW24J-672" value="" style="shape=partialRectangle;connectable=0;fillColor=none;top=0;left=0;bottom=0;right=0;align=left;spacingLeft=2;overflow=hidden;fontSize=11;" vertex="1" parent="OZJzlmCqY2gpluyCW24J-671">
          <mxGeometry width="36" height="22" as="geometry">
            <mxRectangle width="36" height="22" as="alternateBounds" />
          </mxGeometry>
        </mxCell>
        <mxCell id="OZJzlmCqY2gpluyCW24J-673" value="DateOfJoining" style="shape=partialRectangle;connectable=0;fillColor=none;top=0;left=0;bottom=0;right=0;align=left;spacingLeft=2;overflow=hidden;fontSize=11;" vertex="1" parent="OZJzlmCqY2gpluyCW24J-671">
          <mxGeometry x="36" width="92" height="22" as="geometry">
            <mxRectangle width="92" height="22" as="alternateBounds" />
          </mxGeometry>
        </mxCell>
        <mxCell id="OZJzlmCqY2gpluyCW24J-674" style="shape=tableRow;horizontal=0;startSize=0;swimlaneHead=0;swimlaneBody=0;fillColor=none;collapsible=0;dropTarget=0;points=[[0,0.5],[1,0.5]];portConstraint=eastwest;top=0;left=0;right=0;bottom=0;" vertex="1" parent="OZJzlmCqY2gpluyCW24J-658">
          <mxGeometry y="91" width="128" height="22" as="geometry" />
        </mxCell>
        <mxCell id="OZJzlmCqY2gpluyCW24J-675" value="" style="shape=partialRectangle;connectable=0;fillColor=none;top=0;left=0;bottom=0;right=0;align=left;spacingLeft=2;overflow=hidden;fontSize=11;" vertex="1" parent="OZJzlmCqY2gpluyCW24J-674">
          <mxGeometry width="36" height="22" as="geometry">
            <mxRectangle width="36" height="22" as="alternateBounds" />
          </mxGeometry>
        </mxCell>
        <mxCell id="OZJzlmCqY2gpluyCW24J-676" value="Qualification" style="shape=partialRectangle;connectable=0;fillColor=none;top=0;left=0;bottom=0;right=0;align=left;spacingLeft=2;overflow=hidden;fontSize=11;" vertex="1" parent="OZJzlmCqY2gpluyCW24J-674">
          <mxGeometry x="36" width="92" height="22" as="geometry">
            <mxRectangle width="92" height="22" as="alternateBounds" />
          </mxGeometry>
        </mxCell>
        <mxCell id="OZJzlmCqY2gpluyCW24J-677" value="Student" style="shape=table;startSize=25;container=1;collapsible=0;childLayout=tableLayout;fixedRows=1;rowLines=1;fontStyle=1;align=center;resizeLast=1;" vertex="1" parent="1">
          <mxGeometry x="1310" y="450" width="127" height="135" as="geometry" />
        </mxCell>
        <mxCell id="OZJzlmCqY2gpluyCW24J-678" style="shape=tableRow;horizontal=0;startSize=0;swimlaneHead=0;swimlaneBody=0;fillColor=none;collapsible=0;dropTarget=0;points=[[0,0.5],[1,0.5]];portConstraint=eastwest;top=0;left=0;right=0;bottom=0;" vertex="1" parent="OZJzlmCqY2gpluyCW24J-677">
          <mxGeometry y="25" width="127" height="22" as="geometry" />
        </mxCell>
        <mxCell id="OZJzlmCqY2gpluyCW24J-679" value="PK" style="shape=partialRectangle;connectable=0;fillColor=none;top=0;left=0;bottom=0;right=0;align=left;spacingLeft=2;overflow=hidden;fontSize=11;fontStyle=1" vertex="1" parent="OZJzlmCqY2gpluyCW24J-678">
          <mxGeometry width="36" height="22" as="geometry">
            <mxRectangle width="36" height="22" as="alternateBounds" />
          </mxGeometry>
        </mxCell>
        <mxCell id="OZJzlmCqY2gpluyCW24J-680" value="StudentID" style="shape=partialRectangle;connectable=0;fillColor=none;top=0;left=0;bottom=0;right=0;align=left;spacingLeft=2;overflow=hidden;fontSize=11;fontStyle=5" vertex="1" parent="OZJzlmCqY2gpluyCW24J-678">
          <mxGeometry x="36" width="91" height="22" as="geometry">
            <mxRectangle width="91" height="22" as="alternateBounds" />
          </mxGeometry>
        </mxCell>
        <mxCell id="OZJzlmCqY2gpluyCW24J-687" style="shape=tableRow;horizontal=0;startSize=0;swimlaneHead=0;swimlaneBody=0;fillColor=none;collapsible=0;dropTarget=0;points=[[0,0.5],[1,0.5]];portConstraint=eastwest;top=0;left=0;right=0;bottom=0;" vertex="1" parent="OZJzlmCqY2gpluyCW24J-677">
          <mxGeometry y="47" width="127" height="22" as="geometry" />
        </mxCell>
        <mxCell id="OZJzlmCqY2gpluyCW24J-688" value="" style="shape=partialRectangle;connectable=0;fillColor=none;top=0;left=0;bottom=0;right=0;align=left;spacingLeft=2;overflow=hidden;fontSize=11;" vertex="1" parent="OZJzlmCqY2gpluyCW24J-687">
          <mxGeometry width="36" height="22" as="geometry">
            <mxRectangle width="36" height="22" as="alternateBounds" />
          </mxGeometry>
        </mxCell>
        <mxCell id="OZJzlmCqY2gpluyCW24J-689" value="DateOfBirth" style="shape=partialRectangle;connectable=0;fillColor=none;top=0;left=0;bottom=0;right=0;align=left;spacingLeft=2;overflow=hidden;fontSize=11;" vertex="1" parent="OZJzlmCqY2gpluyCW24J-687">
          <mxGeometry x="36" width="91" height="22" as="geometry">
            <mxRectangle width="91" height="22" as="alternateBounds" />
          </mxGeometry>
        </mxCell>
        <mxCell id="OZJzlmCqY2gpluyCW24J-690" style="shape=tableRow;horizontal=0;startSize=0;swimlaneHead=0;swimlaneBody=0;fillColor=none;collapsible=0;dropTarget=0;points=[[0,0.5],[1,0.5]];portConstraint=eastwest;top=0;left=0;right=0;bottom=0;" vertex="1" parent="OZJzlmCqY2gpluyCW24J-677">
          <mxGeometry y="69" width="127" height="22" as="geometry" />
        </mxCell>
        <mxCell id="OZJzlmCqY2gpluyCW24J-691" value="" style="shape=partialRectangle;connectable=0;fillColor=none;top=0;left=0;bottom=0;right=0;align=left;spacingLeft=2;overflow=hidden;fontSize=11;" vertex="1" parent="OZJzlmCqY2gpluyCW24J-690">
          <mxGeometry width="36" height="22" as="geometry">
            <mxRectangle width="36" height="22" as="alternateBounds" />
          </mxGeometry>
        </mxCell>
        <mxCell id="OZJzlmCqY2gpluyCW24J-692" value="AdmissionDate" style="shape=partialRectangle;connectable=0;fillColor=none;top=0;left=0;bottom=0;right=0;align=left;spacingLeft=2;overflow=hidden;fontSize=11;" vertex="1" parent="OZJzlmCqY2gpluyCW24J-690">
          <mxGeometry x="36" width="91" height="22" as="geometry">
            <mxRectangle width="91" height="22" as="alternateBounds" />
          </mxGeometry>
        </mxCell>
        <mxCell id="OZJzlmCqY2gpluyCW24J-693" style="shape=tableRow;horizontal=0;startSize=0;swimlaneHead=0;swimlaneBody=0;fillColor=none;collapsible=0;dropTarget=0;points=[[0,0.5],[1,0.5]];portConstraint=eastwest;top=0;left=0;right=0;bottom=0;" vertex="1" parent="OZJzlmCqY2gpluyCW24J-677">
          <mxGeometry y="91" width="127" height="22" as="geometry" />
        </mxCell>
        <mxCell id="OZJzlmCqY2gpluyCW24J-694" value="" style="shape=partialRectangle;connectable=0;fillColor=none;top=0;left=0;bottom=0;right=0;align=left;spacingLeft=2;overflow=hidden;fontSize=11;" vertex="1" parent="OZJzlmCqY2gpluyCW24J-693">
          <mxGeometry width="36" height="22" as="geometry">
            <mxRectangle width="36" height="22" as="alternateBounds" />
          </mxGeometry>
        </mxCell>
        <mxCell id="OZJzlmCqY2gpluyCW24J-695" value="Batch" style="shape=partialRectangle;connectable=0;fillColor=none;top=0;left=0;bottom=0;right=0;align=left;spacingLeft=2;overflow=hidden;fontSize=11;" vertex="1" parent="OZJzlmCqY2gpluyCW24J-693">
          <mxGeometry x="36" width="91" height="22" as="geometry">
            <mxRectangle width="91" height="22" as="alternateBounds" />
          </mxGeometry>
        </mxCell>
        <mxCell id="OZJzlmCqY2gpluyCW24J-696" style="shape=tableRow;horizontal=0;startSize=0;swimlaneHead=0;swimlaneBody=0;fillColor=none;collapsible=0;dropTarget=0;points=[[0,0.5],[1,0.5]];portConstraint=eastwest;top=0;left=0;right=0;bottom=0;" vertex="1" parent="OZJzlmCqY2gpluyCW24J-677">
          <mxGeometry y="113" width="127" height="22" as="geometry" />
        </mxCell>
        <mxCell id="OZJzlmCqY2gpluyCW24J-697" value="" style="shape=partialRectangle;connectable=0;fillColor=none;top=0;left=0;bottom=0;right=0;align=left;spacingLeft=2;overflow=hidden;fontSize=11;" vertex="1" parent="OZJzlmCqY2gpluyCW24J-696">
          <mxGeometry width="36" height="22" as="geometry">
            <mxRectangle width="36" height="22" as="alternateBounds" />
          </mxGeometry>
        </mxCell>
        <mxCell id="OZJzlmCqY2gpluyCW24J-698" value="" style="shape=partialRectangle;connectable=0;fillColor=none;top=0;left=0;bottom=0;right=0;align=left;spacingLeft=2;overflow=hidden;fontSize=11;" vertex="1" parent="OZJzlmCqY2gpluyCW24J-696">
          <mxGeometry x="36" width="91" height="22" as="geometry">
            <mxRectangle width="91" height="22" as="alternateBounds" />
          </mxGeometry>
        </mxCell>
        <mxCell id="OZJzlmCqY2gpluyCW24J-699" value="Program" style="shape=table;startSize=25;container=1;collapsible=0;childLayout=tableLayout;fixedRows=1;rowLines=1;fontStyle=1;align=center;resizeLast=1;" vertex="1" parent="1">
          <mxGeometry x="143" y="700" width="110" height="140" as="geometry" />
        </mxCell>
        <mxCell id="OZJzlmCqY2gpluyCW24J-700" style="shape=tableRow;horizontal=0;startSize=0;swimlaneHead=0;swimlaneBody=0;fillColor=none;collapsible=0;dropTarget=0;points=[[0,0.5],[1,0.5]];portConstraint=eastwest;top=0;left=0;right=0;bottom=0;" vertex="1" parent="OZJzlmCqY2gpluyCW24J-699">
          <mxGeometry y="25" width="110" height="22" as="geometry" />
        </mxCell>
        <mxCell id="OZJzlmCqY2gpluyCW24J-701" value="PK" style="shape=partialRectangle;connectable=0;fillColor=none;top=0;left=0;bottom=0;right=0;align=left;spacingLeft=2;overflow=hidden;fontSize=11;fontStyle=1" vertex="1" parent="OZJzlmCqY2gpluyCW24J-700">
          <mxGeometry width="36" height="22" as="geometry">
            <mxRectangle width="36" height="22" as="alternateBounds" />
          </mxGeometry>
        </mxCell>
        <mxCell id="OZJzlmCqY2gpluyCW24J-702" value="ProgramID" style="shape=partialRectangle;connectable=0;fillColor=none;top=0;left=0;bottom=0;right=0;align=left;spacingLeft=2;overflow=hidden;fontSize=11;fontStyle=5" vertex="1" parent="OZJzlmCqY2gpluyCW24J-700">
          <mxGeometry x="36" width="74" height="22" as="geometry">
            <mxRectangle width="74" height="22" as="alternateBounds" />
          </mxGeometry>
        </mxCell>
        <mxCell id="OZJzlmCqY2gpluyCW24J-703" style="shape=tableRow;horizontal=0;startSize=0;swimlaneHead=0;swimlaneBody=0;fillColor=none;collapsible=0;dropTarget=0;points=[[0,0.5],[1,0.5]];portConstraint=eastwest;top=0;left=0;right=0;bottom=0;" vertex="1" parent="OZJzlmCqY2gpluyCW24J-699">
          <mxGeometry y="47" width="110" height="22" as="geometry" />
        </mxCell>
        <mxCell id="OZJzlmCqY2gpluyCW24J-704" value="" style="shape=partialRectangle;connectable=0;fillColor=none;top=0;left=0;bottom=0;right=0;align=left;spacingLeft=2;overflow=hidden;fontSize=11;" vertex="1" parent="OZJzlmCqY2gpluyCW24J-703">
          <mxGeometry width="36" height="22" as="geometry">
            <mxRectangle width="36" height="22" as="alternateBounds" />
          </mxGeometry>
        </mxCell>
        <mxCell id="OZJzlmCqY2gpluyCW24J-705" value="Name" style="shape=partialRectangle;connectable=0;fillColor=none;top=0;left=0;bottom=0;right=0;align=left;spacingLeft=2;overflow=hidden;fontSize=11;" vertex="1" parent="OZJzlmCqY2gpluyCW24J-703">
          <mxGeometry x="36" width="74" height="22" as="geometry">
            <mxRectangle width="74" height="22" as="alternateBounds" />
          </mxGeometry>
        </mxCell>
        <mxCell id="OZJzlmCqY2gpluyCW24J-706" style="shape=tableRow;horizontal=0;startSize=0;swimlaneHead=0;swimlaneBody=0;fillColor=none;collapsible=0;dropTarget=0;points=[[0,0.5],[1,0.5]];portConstraint=eastwest;top=0;left=0;right=0;bottom=0;" vertex="1" parent="OZJzlmCqY2gpluyCW24J-699">
          <mxGeometry y="69" width="110" height="22" as="geometry" />
        </mxCell>
        <mxCell id="OZJzlmCqY2gpluyCW24J-707" value="" style="shape=partialRectangle;connectable=0;fillColor=none;top=0;left=0;bottom=0;right=0;align=left;spacingLeft=2;overflow=hidden;fontSize=11;" vertex="1" parent="OZJzlmCqY2gpluyCW24J-706">
          <mxGeometry width="36" height="22" as="geometry">
            <mxRectangle width="36" height="22" as="alternateBounds" />
          </mxGeometry>
        </mxCell>
        <mxCell id="OZJzlmCqY2gpluyCW24J-708" value="Description" style="shape=partialRectangle;connectable=0;fillColor=none;top=0;left=0;bottom=0;right=0;align=left;spacingLeft=2;overflow=hidden;fontSize=11;" vertex="1" parent="OZJzlmCqY2gpluyCW24J-706">
          <mxGeometry x="36" width="74" height="22" as="geometry">
            <mxRectangle width="74" height="22" as="alternateBounds" />
          </mxGeometry>
        </mxCell>
        <mxCell id="OZJzlmCqY2gpluyCW24J-709" style="shape=tableRow;horizontal=0;startSize=0;swimlaneHead=0;swimlaneBody=0;fillColor=none;collapsible=0;dropTarget=0;points=[[0,0.5],[1,0.5]];portConstraint=eastwest;top=0;left=0;right=0;bottom=0;" vertex="1" parent="OZJzlmCqY2gpluyCW24J-699">
          <mxGeometry y="91" width="110" height="22" as="geometry" />
        </mxCell>
        <mxCell id="OZJzlmCqY2gpluyCW24J-710" value="" style="shape=partialRectangle;connectable=0;fillColor=none;top=0;left=0;bottom=0;right=0;align=left;spacingLeft=2;overflow=hidden;fontSize=11;" vertex="1" parent="OZJzlmCqY2gpluyCW24J-709">
          <mxGeometry width="36" height="22" as="geometry">
            <mxRectangle width="36" height="22" as="alternateBounds" />
          </mxGeometry>
        </mxCell>
        <mxCell id="OZJzlmCqY2gpluyCW24J-711" value="TotalCredits" style="shape=partialRectangle;connectable=0;fillColor=none;top=0;left=0;bottom=0;right=0;align=left;spacingLeft=2;overflow=hidden;fontSize=11;" vertex="1" parent="OZJzlmCqY2gpluyCW24J-709">
          <mxGeometry x="36" width="74" height="22" as="geometry">
            <mxRectangle width="74" height="22" as="alternateBounds" />
          </mxGeometry>
        </mxCell>
        <mxCell id="OZJzlmCqY2gpluyCW24J-712" style="shape=tableRow;horizontal=0;startSize=0;swimlaneHead=0;swimlaneBody=0;fillColor=none;collapsible=0;dropTarget=0;points=[[0,0.5],[1,0.5]];portConstraint=eastwest;top=0;left=0;right=0;bottom=0;" vertex="1" parent="OZJzlmCqY2gpluyCW24J-699">
          <mxGeometry y="113" width="110" height="27" as="geometry" />
        </mxCell>
        <mxCell id="OZJzlmCqY2gpluyCW24J-713" value="FK" style="shape=partialRectangle;connectable=0;fillColor=none;top=0;left=0;bottom=0;right=0;align=left;spacingLeft=2;overflow=hidden;fontSize=11;fontStyle=1" vertex="1" parent="OZJzlmCqY2gpluyCW24J-712">
          <mxGeometry width="36" height="27" as="geometry">
            <mxRectangle width="36" height="27" as="alternateBounds" />
          </mxGeometry>
        </mxCell>
        <mxCell id="OZJzlmCqY2gpluyCW24J-714" value="DepartmentID" style="shape=partialRectangle;connectable=0;fillColor=none;top=0;left=0;bottom=0;right=0;align=left;spacingLeft=2;overflow=hidden;fontSize=11;" vertex="1" parent="OZJzlmCqY2gpluyCW24J-712">
          <mxGeometry x="36" width="74" height="27" as="geometry">
            <mxRectangle width="74" height="27" as="alternateBounds" />
          </mxGeometry>
        </mxCell>
        <mxCell id="OZJzlmCqY2gpluyCW24J-715" value="Admin" style="shape=table;startSize=25;container=1;collapsible=0;childLayout=tableLayout;fixedRows=1;rowLines=1;fontStyle=1;align=center;resizeLast=1;" vertex="1" parent="1">
          <mxGeometry x="310" y="10" width="100" height="113" as="geometry" />
        </mxCell>
        <mxCell id="OZJzlmCqY2gpluyCW24J-716" style="shape=tableRow;horizontal=0;startSize=0;swimlaneHead=0;swimlaneBody=0;fillColor=none;collapsible=0;dropTarget=0;points=[[0,0.5],[1,0.5]];portConstraint=eastwest;top=0;left=0;right=0;bottom=0;" vertex="1" parent="OZJzlmCqY2gpluyCW24J-715">
          <mxGeometry y="25" width="100" height="22" as="geometry" />
        </mxCell>
        <mxCell id="OZJzlmCqY2gpluyCW24J-717" value="PK" style="shape=partialRectangle;connectable=0;fillColor=none;top=0;left=0;bottom=0;right=0;align=left;spacingLeft=2;overflow=hidden;fontSize=11;fontStyle=1" vertex="1" parent="OZJzlmCqY2gpluyCW24J-716">
          <mxGeometry width="30" height="22" as="geometry">
            <mxRectangle width="30" height="22" as="alternateBounds" />
          </mxGeometry>
        </mxCell>
        <mxCell id="OZJzlmCqY2gpluyCW24J-718" value="AdminID " style="shape=partialRectangle;connectable=0;fillColor=none;top=0;left=0;bottom=0;right=0;align=left;spacingLeft=2;overflow=hidden;fontSize=11;fontStyle=5" vertex="1" parent="OZJzlmCqY2gpluyCW24J-716">
          <mxGeometry x="30" width="70" height="22" as="geometry">
            <mxRectangle width="70" height="22" as="alternateBounds" />
          </mxGeometry>
        </mxCell>
        <mxCell id="OZJzlmCqY2gpluyCW24J-719" style="shape=tableRow;horizontal=0;startSize=0;swimlaneHead=0;swimlaneBody=0;fillColor=none;collapsible=0;dropTarget=0;points=[[0,0.5],[1,0.5]];portConstraint=eastwest;top=0;left=0;right=0;bottom=0;" vertex="1" parent="OZJzlmCqY2gpluyCW24J-715">
          <mxGeometry y="47" width="100" height="22" as="geometry" />
        </mxCell>
        <mxCell id="OZJzlmCqY2gpluyCW24J-720" value="" style="shape=partialRectangle;connectable=0;fillColor=none;top=0;left=0;bottom=0;right=0;align=left;spacingLeft=2;overflow=hidden;fontSize=11;" vertex="1" parent="OZJzlmCqY2gpluyCW24J-719">
          <mxGeometry width="30" height="22" as="geometry">
            <mxRectangle width="30" height="22" as="alternateBounds" />
          </mxGeometry>
        </mxCell>
        <mxCell id="OZJzlmCqY2gpluyCW24J-721" value="Name" style="shape=partialRectangle;connectable=0;fillColor=none;top=0;left=0;bottom=0;right=0;align=left;spacingLeft=2;overflow=hidden;fontSize=11;" vertex="1" parent="OZJzlmCqY2gpluyCW24J-719">
          <mxGeometry x="30" width="70" height="22" as="geometry">
            <mxRectangle width="70" height="22" as="alternateBounds" />
          </mxGeometry>
        </mxCell>
        <mxCell id="OZJzlmCqY2gpluyCW24J-722" style="shape=tableRow;horizontal=0;startSize=0;swimlaneHead=0;swimlaneBody=0;fillColor=none;collapsible=0;dropTarget=0;points=[[0,0.5],[1,0.5]];portConstraint=eastwest;top=0;left=0;right=0;bottom=0;" vertex="1" parent="OZJzlmCqY2gpluyCW24J-715">
          <mxGeometry y="69" width="100" height="22" as="geometry" />
        </mxCell>
        <mxCell id="OZJzlmCqY2gpluyCW24J-723" value="" style="shape=partialRectangle;connectable=0;fillColor=none;top=0;left=0;bottom=0;right=0;align=left;spacingLeft=2;overflow=hidden;fontSize=11;" vertex="1" parent="OZJzlmCqY2gpluyCW24J-722">
          <mxGeometry width="30" height="22" as="geometry">
            <mxRectangle width="30" height="22" as="alternateBounds" />
          </mxGeometry>
        </mxCell>
        <mxCell id="OZJzlmCqY2gpluyCW24J-724" value="Email" style="shape=partialRectangle;connectable=0;fillColor=none;top=0;left=0;bottom=0;right=0;align=left;spacingLeft=2;overflow=hidden;fontSize=11;" vertex="1" parent="OZJzlmCqY2gpluyCW24J-722">
          <mxGeometry x="30" width="70" height="22" as="geometry">
            <mxRectangle width="70" height="22" as="alternateBounds" />
          </mxGeometry>
        </mxCell>
        <mxCell id="OZJzlmCqY2gpluyCW24J-725" style="shape=tableRow;horizontal=0;startSize=0;swimlaneHead=0;swimlaneBody=0;fillColor=none;collapsible=0;dropTarget=0;points=[[0,0.5],[1,0.5]];portConstraint=eastwest;top=0;left=0;right=0;bottom=0;" vertex="1" parent="OZJzlmCqY2gpluyCW24J-715">
          <mxGeometry y="91" width="100" height="22" as="geometry" />
        </mxCell>
        <mxCell id="OZJzlmCqY2gpluyCW24J-726" value="" style="shape=partialRectangle;connectable=0;fillColor=none;top=0;left=0;bottom=0;right=0;align=left;spacingLeft=2;overflow=hidden;fontSize=11;" vertex="1" parent="OZJzlmCqY2gpluyCW24J-725">
          <mxGeometry width="30" height="22" as="geometry">
            <mxRectangle width="30" height="22" as="alternateBounds" />
          </mxGeometry>
        </mxCell>
        <mxCell id="OZJzlmCqY2gpluyCW24J-727" value="Role" style="shape=partialRectangle;connectable=0;fillColor=none;top=0;left=0;bottom=0;right=0;align=left;spacingLeft=2;overflow=hidden;fontSize=11;" vertex="1" parent="OZJzlmCqY2gpluyCW24J-725">
          <mxGeometry x="30" width="70" height="22" as="geometry">
            <mxRectangle width="70" height="22" as="alternateBounds" />
          </mxGeometry>
        </mxCell>
        <mxCell id="OZJzlmCqY2gpluyCW24J-728" value="owns" style="curved=0;startArrow=ERmandOne;startSize=10;;endArrow=ERmany;endSize=10;;exitX=0.0022527149745396207;exitY=0.671679147389603;entryX=0.564;entryY=0.01;rounded=0;entryDx=0;entryDy=0;entryPerimeter=0;" edge="1" parent="1" source="OZJzlmCqY2gpluyCW24J-557" target="OZJzlmCqY2gpluyCW24J-573">
          <mxGeometry relative="1" as="geometry">
            <Array as="points">
              <mxPoint x="128" y="330" />
            </Array>
          </mxGeometry>
        </mxCell>
        <mxCell id="OZJzlmCqY2gpluyCW24J-729" value="offers" style="curved=0;startArrow=ERmandOne;startSize=10;;endArrow=ERmany;endSize=10;;exitX=-0.0003958865328951999;exitY=0.7528896924374957;entryX=-0.004486864263361151;entryY=0.28673575596437634;rounded=0;" edge="1" parent="1" source="OZJzlmCqY2gpluyCW24J-573" target="OZJzlmCqY2gpluyCW24J-589">
          <mxGeometry relative="1" as="geometry">
            <Array as="points">
              <mxPoint x="-450" y="578" />
              <mxPoint x="-450" y="1532" />
            </Array>
          </mxGeometry>
        </mxCell>
        <mxCell id="OZJzlmCqY2gpluyCW24J-730" value="assigns" style="curved=0;startArrow=ERmandOne;startSize=10;;endArrow=ERmany;endSize=10;;exitX=-0.0003958865328951999;exitY=0.9852450361230289;entryX=0;entryY=0.5;rounded=0;entryDx=0;entryDy=0;" edge="1" parent="1" source="OZJzlmCqY2gpluyCW24J-573" target="OZJzlmCqY2gpluyCW24J-633">
          <mxGeometry relative="1" as="geometry">
            <Array as="points">
              <mxPoint x="-270" y="610" />
              <mxPoint x="-270" y="1330" />
            </Array>
          </mxGeometry>
        </mxCell>
        <mxCell id="OZJzlmCqY2gpluyCW24J-731" value="has" style="curved=0;startArrow=ERmandOne;startSize=10;;endArrow=ERmany;endSize=10;;exitX=1.005;exitY=0.306;rounded=0;exitDx=0;exitDy=0;entryX=0;entryY=0.5;entryDx=0;entryDy=0;exitPerimeter=0;" edge="1" parent="1" source="OZJzlmCqY2gpluyCW24J-605" target="OZJzlmCqY2gpluyCW24J-646">
          <mxGeometry relative="1" as="geometry">
            <Array as="points" />
            <mxPoint x="740" y="1660" as="targetPoint" />
          </mxGeometry>
        </mxCell>
        <mxCell id="OZJzlmCqY2gpluyCW24J-732" value="assigned" style="curved=0;startArrow=ERmandOne;startSize=10;;endArrow=ERmany;endSize=10;;exitX=-0.00167083740234375;exitY=0.9311742184731469;rounded=0;entryX=0.75;entryY=0;entryDx=0;entryDy=0;" edge="1" parent="1" source="OZJzlmCqY2gpluyCW24J-658" target="OZJzlmCqY2gpluyCW24J-611">
          <mxGeometry relative="1" as="geometry">
            <Array as="points">
              <mxPoint x="708" y="550" />
            </Array>
            <mxPoint x="720" y="701" as="targetPoint" />
          </mxGeometry>
        </mxCell>
        <mxCell id="OZJzlmCqY2gpluyCW24J-733" value="teaches" style="curved=0;startArrow=ERmandOne;startSize=10;;endArrow=ERzeroToOne;endSize=10;;exitX=0.359;exitY=1.11;entryX=1;entryY=0.5;rounded=0;exitDx=0;exitDy=0;exitPerimeter=0;entryDx=0;entryDy=0;" edge="1" parent="1" source="OZJzlmCqY2gpluyCW24J-636" target="OZJzlmCqY2gpluyCW24J-593">
          <mxGeometry relative="1" as="geometry">
            <Array as="points">
              <mxPoint x="657" y="1538" />
            </Array>
          </mxGeometry>
        </mxCell>
        <mxCell id="OZJzlmCqY2gpluyCW24J-734" value="belongs" style="curved=0;startArrow=ERmandOne;startSize=10;;endArrow=ERmany;endSize=10;;entryX=0.9973509676821597;entryY=0.7496629202948163;rounded=0;exitX=0.069;exitY=0.005;exitDx=0;exitDy=0;exitPerimeter=0;" edge="1" parent="1" source="OZJzlmCqY2gpluyCW24J-611" target="OZJzlmCqY2gpluyCW24J-573">
          <mxGeometry relative="1" as="geometry">
            <Array as="points">
              <mxPoint x="619" y="577" />
            </Array>
          </mxGeometry>
        </mxCell>
        <mxCell id="OZJzlmCqY2gpluyCW24J-735" value="instructs" style="curved=0;startArrow=ERmandOne;startSize=10;;endArrow=ERmany;endSize=10;;exitX=0.875;exitY=0.994;entryX=1;entryY=0.5;rounded=0;entryDx=0;entryDy=0;exitDx=0;exitDy=0;exitPerimeter=0;" edge="1" parent="1" source="OZJzlmCqY2gpluyCW24J-674" target="OZJzlmCqY2gpluyCW24J-646">
          <mxGeometry relative="1" as="geometry">
            <Array as="points">
              <mxPoint x="1030" y="1620" />
            </Array>
          </mxGeometry>
        </mxCell>
        <mxCell id="OZJzlmCqY2gpluyCW24J-736" value="enrolls" style="curved=0;startArrow=ERmandOne;startSize=10;;endArrow=ERmany;endSize=10;;exitX=0.57;exitY=1.018;rounded=0;entryX=0.775;entryY=0.004;entryDx=0;entryDy=0;exitDx=0;exitDy=0;exitPerimeter=0;entryPerimeter=0;" edge="1" parent="1" source="OZJzlmCqY2gpluyCW24J-696" target="OZJzlmCqY2gpluyCW24J-639">
          <mxGeometry relative="1" as="geometry">
            <Array as="points">
              <mxPoint x="1382" y="1510" />
              <mxPoint x="880" y="1510" />
            </Array>
            <mxPoint x="785" y="1255" as="targetPoint" />
          </mxGeometry>
        </mxCell>
        <mxCell id="OZJzlmCqY2gpluyCW24J-737" value="includes" style="curved=0;startArrow=ERmandOne;startSize=10;;endArrow=ERmany;endSize=10;;exitX=1.009;exitY=1.116;rounded=0;entryX=1.021;entryY=0.082;entryDx=0;entryDy=0;entryPerimeter=0;exitDx=0;exitDy=0;exitPerimeter=0;" edge="1" parent="1" source="OZJzlmCqY2gpluyCW24J-709" target="OZJzlmCqY2gpluyCW24J-589">
          <mxGeometry relative="1" as="geometry">
            <Array as="points">
              <mxPoint x="520" y="820" />
              <mxPoint x="520" y="1495" />
            </Array>
            <mxPoint x="200" y="1040" as="targetPoint" />
          </mxGeometry>
        </mxCell>
        <mxCell id="OZJzlmCqY2gpluyCW24J-738" value="offers" style="curved=0;startArrow=ERmandOne;startSize=10;;endArrow=ERmany;endSize=10;;exitX=0.45686255924693153;exitY=0.9985075423966593;entryX=0.584880024407774;entryY=-0.0014924576033407183;rounded=0;" edge="1" parent="1" source="OZJzlmCqY2gpluyCW24J-573" target="OZJzlmCqY2gpluyCW24J-699">
          <mxGeometry relative="1" as="geometry">
            <Array as="points">
              <mxPoint x="115" y="670" />
              <mxPoint x="207" y="671" />
            </Array>
          </mxGeometry>
        </mxCell>
        <mxCell id="OZJzlmCqY2gpluyCW24J-739" value="employs" style="curved=0;startArrow=ERmandOne;startSize=10;;endArrow=ERmany;endSize=10;;exitX=0.991;exitY=1.037;entryX=0.583;entryY=0.015;rounded=0;exitDx=0;exitDy=0;exitPerimeter=0;entryDx=0;entryDy=0;entryPerimeter=0;" edge="1" parent="1" source="OZJzlmCqY2gpluyCW24J-564" target="OZJzlmCqY2gpluyCW24J-658">
          <mxGeometry relative="1" as="geometry">
            <Array as="points">
              <mxPoint x="995" y="330" />
            </Array>
          </mxGeometry>
        </mxCell>
        <mxCell id="OZJzlmCqY2gpluyCW24J-740" value="manages" style="curved=1;startArrow=ERmandOne;startSize=10;;endArrow=ERmany;endSize=10;;exitX=0.4979414558410645;exitY=0.9964285578046527;entryX=0.5;entryY=0;rounded=0;entryDx=0;entryDy=0;" edge="1" parent="1" source="OZJzlmCqY2gpluyCW24J-715" target="OZJzlmCqY2gpluyCW24J-557">
          <mxGeometry relative="1" as="geometry">
            <Array as="points" />
          </mxGeometry>
        </mxCell>
        <mxCell id="OZJzlmCqY2gpluyCW24J-742" value="Person" style="shape=table;startSize=25;container=1;collapsible=0;childLayout=tableLayout;fixedRows=1;rowLines=1;fontStyle=1;align=center;resizeLast=1;" vertex="1" parent="1">
          <mxGeometry x="1140" y="190" width="128" height="133" as="geometry" />
        </mxCell>
        <mxCell id="OZJzlmCqY2gpluyCW24J-1065" style="shape=tableRow;horizontal=0;startSize=0;swimlaneHead=0;swimlaneBody=0;fillColor=none;collapsible=0;dropTarget=0;points=[[0,0.5],[1,0.5]];portConstraint=eastwest;top=0;left=0;right=0;bottom=0;" vertex="1" parent="OZJzlmCqY2gpluyCW24J-742">
          <mxGeometry y="25" width="128" height="22" as="geometry" />
        </mxCell>
        <mxCell id="OZJzlmCqY2gpluyCW24J-1066" value="PK" style="shape=partialRectangle;connectable=0;fillColor=none;top=0;left=0;bottom=0;right=0;align=left;spacingLeft=2;overflow=hidden;fontSize=11;fontStyle=1" vertex="1" parent="OZJzlmCqY2gpluyCW24J-1065">
          <mxGeometry width="36" height="22" as="geometry">
            <mxRectangle width="36" height="22" as="alternateBounds" />
          </mxGeometry>
        </mxCell>
        <mxCell id="OZJzlmCqY2gpluyCW24J-1067" value="PersonID" style="shape=partialRectangle;connectable=0;fillColor=none;top=0;left=0;bottom=0;right=0;align=left;spacingLeft=2;overflow=hidden;fontSize=11;fontStyle=5" vertex="1" parent="OZJzlmCqY2gpluyCW24J-1065">
          <mxGeometry x="36" width="92" height="22" as="geometry">
            <mxRectangle width="92" height="22" as="alternateBounds" />
          </mxGeometry>
        </mxCell>
        <mxCell id="OZJzlmCqY2gpluyCW24J-746" style="shape=tableRow;horizontal=0;startSize=0;swimlaneHead=0;swimlaneBody=0;fillColor=none;collapsible=0;dropTarget=0;points=[[0,0.5],[1,0.5]];portConstraint=eastwest;top=0;left=0;right=0;bottom=0;" vertex="1" parent="OZJzlmCqY2gpluyCW24J-742">
          <mxGeometry y="47" width="128" height="22" as="geometry" />
        </mxCell>
        <mxCell id="OZJzlmCqY2gpluyCW24J-747" value="" style="shape=partialRectangle;connectable=0;fillColor=none;top=0;left=0;bottom=0;right=0;align=left;spacingLeft=2;overflow=hidden;fontSize=11;" vertex="1" parent="OZJzlmCqY2gpluyCW24J-746">
          <mxGeometry width="36" height="22" as="geometry">
            <mxRectangle width="36" height="22" as="alternateBounds" />
          </mxGeometry>
        </mxCell>
        <mxCell id="OZJzlmCqY2gpluyCW24J-748" value="Name" style="shape=partialRectangle;connectable=0;fillColor=none;top=0;left=0;bottom=0;right=0;align=left;spacingLeft=2;overflow=hidden;fontSize=11;" vertex="1" parent="OZJzlmCqY2gpluyCW24J-746">
          <mxGeometry x="36" width="92" height="22" as="geometry">
            <mxRectangle width="92" height="22" as="alternateBounds" />
          </mxGeometry>
        </mxCell>
        <mxCell id="OZJzlmCqY2gpluyCW24J-749" style="shape=tableRow;horizontal=0;startSize=0;swimlaneHead=0;swimlaneBody=0;fillColor=none;collapsible=0;dropTarget=0;points=[[0,0.5],[1,0.5]];portConstraint=eastwest;top=0;left=0;right=0;bottom=0;" vertex="1" parent="OZJzlmCqY2gpluyCW24J-742">
          <mxGeometry y="69" width="128" height="22" as="geometry" />
        </mxCell>
        <mxCell id="OZJzlmCqY2gpluyCW24J-750" value="" style="shape=partialRectangle;connectable=0;fillColor=none;top=0;left=0;bottom=0;right=0;align=left;spacingLeft=2;overflow=hidden;fontSize=11;" vertex="1" parent="OZJzlmCqY2gpluyCW24J-749">
          <mxGeometry width="36" height="22" as="geometry">
            <mxRectangle width="36" height="22" as="alternateBounds" />
          </mxGeometry>
        </mxCell>
        <mxCell id="OZJzlmCqY2gpluyCW24J-751" value="Email" style="shape=partialRectangle;connectable=0;fillColor=none;top=0;left=0;bottom=0;right=0;align=left;spacingLeft=2;overflow=hidden;fontSize=11;" vertex="1" parent="OZJzlmCqY2gpluyCW24J-749">
          <mxGeometry x="36" width="92" height="22" as="geometry">
            <mxRectangle width="92" height="22" as="alternateBounds" />
          </mxGeometry>
        </mxCell>
        <mxCell id="OZJzlmCqY2gpluyCW24J-752" style="shape=tableRow;horizontal=0;startSize=0;swimlaneHead=0;swimlaneBody=0;fillColor=none;collapsible=0;dropTarget=0;points=[[0,0.5],[1,0.5]];portConstraint=eastwest;top=0;left=0;right=0;bottom=0;" vertex="1" parent="OZJzlmCqY2gpluyCW24J-742">
          <mxGeometry y="91" width="128" height="20" as="geometry" />
        </mxCell>
        <mxCell id="OZJzlmCqY2gpluyCW24J-753" value="" style="shape=partialRectangle;connectable=0;fillColor=none;top=0;left=0;bottom=0;right=0;align=left;spacingLeft=2;overflow=hidden;fontSize=11;fontStyle=1" vertex="1" parent="OZJzlmCqY2gpluyCW24J-752">
          <mxGeometry width="36" height="20" as="geometry">
            <mxRectangle width="36" height="20" as="alternateBounds" />
          </mxGeometry>
        </mxCell>
        <mxCell id="OZJzlmCqY2gpluyCW24J-754" value="Password" style="shape=partialRectangle;connectable=0;fillColor=none;top=0;left=0;bottom=0;right=0;align=left;spacingLeft=2;overflow=hidden;fontSize=11;" vertex="1" parent="OZJzlmCqY2gpluyCW24J-752">
          <mxGeometry x="36" width="92" height="20" as="geometry">
            <mxRectangle width="92" height="20" as="alternateBounds" />
          </mxGeometry>
        </mxCell>
        <mxCell id="OZJzlmCqY2gpluyCW24J-758" style="shape=tableRow;horizontal=0;startSize=0;swimlaneHead=0;swimlaneBody=0;fillColor=none;collapsible=0;dropTarget=0;points=[[0,0.5],[1,0.5]];portConstraint=eastwest;top=0;left=0;right=0;bottom=0;" vertex="1" parent="OZJzlmCqY2gpluyCW24J-742">
          <mxGeometry y="111" width="128" height="22" as="geometry" />
        </mxCell>
        <mxCell id="OZJzlmCqY2gpluyCW24J-759" value="" style="shape=partialRectangle;connectable=0;fillColor=none;top=0;left=0;bottom=0;right=0;align=left;spacingLeft=2;overflow=hidden;fontSize=11;" vertex="1" parent="OZJzlmCqY2gpluyCW24J-758">
          <mxGeometry width="36" height="22" as="geometry">
            <mxRectangle width="36" height="22" as="alternateBounds" />
          </mxGeometry>
        </mxCell>
        <mxCell id="OZJzlmCqY2gpluyCW24J-760" value="Type" style="shape=partialRectangle;connectable=0;fillColor=none;top=0;left=0;bottom=0;right=0;align=left;spacingLeft=2;overflow=hidden;fontSize=11;" vertex="1" parent="OZJzlmCqY2gpluyCW24J-758">
          <mxGeometry x="36" width="92" height="22" as="geometry">
            <mxRectangle width="92" height="22" as="alternateBounds" />
          </mxGeometry>
        </mxCell>
        <mxCell id="OZJzlmCqY2gpluyCW24J-761" value="&lt;b&gt;d&lt;/b&gt;" style="ellipse;whiteSpace=wrap;html=1;" vertex="1" parent="1">
          <mxGeometry x="1160" y="373" width="42" height="40" as="geometry" />
        </mxCell>
        <mxCell id="OZJzlmCqY2gpluyCW24J-762" value="" style="endArrow=none;html=1;rounded=0;entryX=1;entryY=0;entryDx=0;entryDy=0;exitX=-0.025;exitY=0.6;exitDx=0;exitDy=0;exitPerimeter=0;" edge="1" parent="1" source="OZJzlmCqY2gpluyCW24J-761" target="OZJzlmCqY2gpluyCW24J-658">
          <mxGeometry width="50" height="50" relative="1" as="geometry">
            <mxPoint x="1079" y="625" as="sourcePoint" />
            <mxPoint x="1129" y="575" as="targetPoint" />
          </mxGeometry>
        </mxCell>
        <mxCell id="OZJzlmCqY2gpluyCW24J-763" value="" style="endArrow=none;html=1;rounded=0;exitX=0;exitY=0;exitDx=0;exitDy=0;entryX=1;entryY=0.679;entryDx=0;entryDy=0;entryPerimeter=0;" edge="1" parent="1" source="OZJzlmCqY2gpluyCW24J-677" target="OZJzlmCqY2gpluyCW24J-761">
          <mxGeometry width="50" height="50" relative="1" as="geometry">
            <mxPoint x="959" y="695" as="sourcePoint" />
            <mxPoint x="1009" y="645" as="targetPoint" />
          </mxGeometry>
        </mxCell>
        <mxCell id="OZJzlmCqY2gpluyCW24J-764" value="" style="endArrow=none;html=1;rounded=0;entryX=0.32;entryY=1.008;entryDx=0;entryDy=0;entryPerimeter=0;exitX=0.5;exitY=0;exitDx=0;exitDy=0;" edge="1" parent="1" source="OZJzlmCqY2gpluyCW24J-761" target="OZJzlmCqY2gpluyCW24J-758">
          <mxGeometry width="50" height="50" relative="1" as="geometry">
            <mxPoint x="1089" y="735" as="sourcePoint" />
            <mxPoint x="1139" y="685" as="targetPoint" />
            <Array as="points" />
          </mxGeometry>
        </mxCell>
        <mxCell id="OZJzlmCqY2gpluyCW24J-814" value="UndergraduateProgram" style="shape=table;startSize=25;container=1;collapsible=0;childLayout=tableLayout;fixedRows=1;rowLines=1;fontStyle=1;align=center;resizeLast=1;" vertex="1" parent="1">
          <mxGeometry x="-180" y="1051" width="154" height="89" as="geometry" />
        </mxCell>
        <mxCell id="OZJzlmCqY2gpluyCW24J-815" style="shape=tableRow;horizontal=0;startSize=0;swimlaneHead=0;swimlaneBody=0;fillColor=none;collapsible=0;dropTarget=0;points=[[0,0.5],[1,0.5]];portConstraint=eastwest;top=0;left=0;right=0;bottom=0;" vertex="1" parent="OZJzlmCqY2gpluyCW24J-814">
          <mxGeometry y="25" width="154" height="21" as="geometry" />
        </mxCell>
        <mxCell id="OZJzlmCqY2gpluyCW24J-816" value="" style="shape=partialRectangle;connectable=0;fillColor=none;top=0;left=0;bottom=0;right=0;align=left;spacingLeft=2;overflow=hidden;fontSize=11;" vertex="1" parent="OZJzlmCqY2gpluyCW24J-815">
          <mxGeometry width="36" height="21" as="geometry">
            <mxRectangle width="36" height="21" as="alternateBounds" />
          </mxGeometry>
        </mxCell>
        <mxCell id="OZJzlmCqY2gpluyCW24J-817" value="DurationYears" style="shape=partialRectangle;connectable=0;fillColor=none;top=0;left=0;bottom=0;right=0;align=left;spacingLeft=2;overflow=hidden;fontSize=11;" vertex="1" parent="OZJzlmCqY2gpluyCW24J-815">
          <mxGeometry x="36" width="118" height="21" as="geometry">
            <mxRectangle width="118" height="21" as="alternateBounds" />
          </mxGeometry>
        </mxCell>
        <mxCell id="OZJzlmCqY2gpluyCW24J-818" style="shape=tableRow;horizontal=0;startSize=0;swimlaneHead=0;swimlaneBody=0;fillColor=none;collapsible=0;dropTarget=0;points=[[0,0.5],[1,0.5]];portConstraint=eastwest;top=0;left=0;right=0;bottom=0;" vertex="1" parent="OZJzlmCqY2gpluyCW24J-814">
          <mxGeometry y="46" width="154" height="21" as="geometry" />
        </mxCell>
        <mxCell id="OZJzlmCqY2gpluyCW24J-819" value="" style="shape=partialRectangle;connectable=0;fillColor=none;top=0;left=0;bottom=0;right=0;align=left;spacingLeft=2;overflow=hidden;fontSize=11;" vertex="1" parent="OZJzlmCqY2gpluyCW24J-818">
          <mxGeometry width="36" height="21" as="geometry">
            <mxRectangle width="36" height="21" as="alternateBounds" />
          </mxGeometry>
        </mxCell>
        <mxCell id="OZJzlmCqY2gpluyCW24J-820" value="DegreeType" style="shape=partialRectangle;connectable=0;fillColor=none;top=0;left=0;bottom=0;right=0;align=left;spacingLeft=2;overflow=hidden;fontSize=11;" vertex="1" parent="OZJzlmCqY2gpluyCW24J-818">
          <mxGeometry x="36" width="118" height="21" as="geometry">
            <mxRectangle width="118" height="21" as="alternateBounds" />
          </mxGeometry>
        </mxCell>
        <mxCell id="OZJzlmCqY2gpluyCW24J-1021" style="shape=tableRow;horizontal=0;startSize=0;swimlaneHead=0;swimlaneBody=0;fillColor=none;collapsible=0;dropTarget=0;points=[[0,0.5],[1,0.5]];portConstraint=eastwest;top=0;left=0;right=0;bottom=0;" vertex="1" parent="OZJzlmCqY2gpluyCW24J-814">
          <mxGeometry y="67" width="154" height="21" as="geometry" />
        </mxCell>
        <mxCell id="OZJzlmCqY2gpluyCW24J-1022" value="FK" style="shape=partialRectangle;connectable=0;fillColor=none;top=0;left=0;bottom=0;right=0;align=left;spacingLeft=2;overflow=hidden;fontSize=11;fontStyle=1" vertex="1" parent="OZJzlmCqY2gpluyCW24J-1021">
          <mxGeometry width="36" height="21" as="geometry">
            <mxRectangle width="36" height="21" as="alternateBounds" />
          </mxGeometry>
        </mxCell>
        <mxCell id="OZJzlmCqY2gpluyCW24J-1023" value="ProgramID" style="shape=partialRectangle;connectable=0;fillColor=none;top=0;left=0;bottom=0;right=0;align=left;spacingLeft=2;overflow=hidden;fontSize=11;" vertex="1" parent="OZJzlmCqY2gpluyCW24J-1021">
          <mxGeometry x="36" width="118" height="21" as="geometry">
            <mxRectangle width="118" height="21" as="alternateBounds" />
          </mxGeometry>
        </mxCell>
        <mxCell id="OZJzlmCqY2gpluyCW24J-821" value="PostgraduateProgram" style="shape=table;startSize=25;container=1;collapsible=0;childLayout=tableLayout;fixedRows=1;rowLines=1;fontStyle=1;align=center;resizeLast=1;" vertex="1" parent="1">
          <mxGeometry x="43" y="1051" width="144" height="113" as="geometry" />
        </mxCell>
        <mxCell id="OZJzlmCqY2gpluyCW24J-822" style="shape=tableRow;horizontal=0;startSize=0;swimlaneHead=0;swimlaneBody=0;fillColor=none;collapsible=0;dropTarget=0;points=[[0,0.5],[1,0.5]];portConstraint=eastwest;top=0;left=0;right=0;bottom=0;" vertex="1" parent="OZJzlmCqY2gpluyCW24J-821">
          <mxGeometry y="25" width="144" height="22" as="geometry" />
        </mxCell>
        <mxCell id="OZJzlmCqY2gpluyCW24J-823" value="" style="shape=partialRectangle;connectable=0;fillColor=none;top=0;left=0;bottom=0;right=0;align=left;spacingLeft=2;overflow=hidden;fontSize=11;" vertex="1" parent="OZJzlmCqY2gpluyCW24J-822">
          <mxGeometry width="36" height="22" as="geometry">
            <mxRectangle width="36" height="22" as="alternateBounds" />
          </mxGeometry>
        </mxCell>
        <mxCell id="OZJzlmCqY2gpluyCW24J-824" value="DurationYears" style="shape=partialRectangle;connectable=0;fillColor=none;top=0;left=0;bottom=0;right=0;align=left;spacingLeft=2;overflow=hidden;fontSize=11;" vertex="1" parent="OZJzlmCqY2gpluyCW24J-822">
          <mxGeometry x="36" width="108" height="22" as="geometry">
            <mxRectangle width="108" height="22" as="alternateBounds" />
          </mxGeometry>
        </mxCell>
        <mxCell id="OZJzlmCqY2gpluyCW24J-825" style="shape=tableRow;horizontal=0;startSize=0;swimlaneHead=0;swimlaneBody=0;fillColor=none;collapsible=0;dropTarget=0;points=[[0,0.5],[1,0.5]];portConstraint=eastwest;top=0;left=0;right=0;bottom=0;" vertex="1" parent="OZJzlmCqY2gpluyCW24J-821">
          <mxGeometry y="47" width="144" height="22" as="geometry" />
        </mxCell>
        <mxCell id="OZJzlmCqY2gpluyCW24J-826" value="" style="shape=partialRectangle;connectable=0;fillColor=none;top=0;left=0;bottom=0;right=0;align=left;spacingLeft=2;overflow=hidden;fontSize=11;" vertex="1" parent="OZJzlmCqY2gpluyCW24J-825">
          <mxGeometry width="36" height="22" as="geometry">
            <mxRectangle width="36" height="22" as="alternateBounds" />
          </mxGeometry>
        </mxCell>
        <mxCell id="OZJzlmCqY2gpluyCW24J-827" value="DegreeType" style="shape=partialRectangle;connectable=0;fillColor=none;top=0;left=0;bottom=0;right=0;align=left;spacingLeft=2;overflow=hidden;fontSize=11;" vertex="1" parent="OZJzlmCqY2gpluyCW24J-825">
          <mxGeometry x="36" width="108" height="22" as="geometry">
            <mxRectangle width="108" height="22" as="alternateBounds" />
          </mxGeometry>
        </mxCell>
        <mxCell id="OZJzlmCqY2gpluyCW24J-828" style="shape=tableRow;horizontal=0;startSize=0;swimlaneHead=0;swimlaneBody=0;fillColor=none;collapsible=0;dropTarget=0;points=[[0,0.5],[1,0.5]];portConstraint=eastwest;top=0;left=0;right=0;bottom=0;" vertex="1" parent="OZJzlmCqY2gpluyCW24J-821">
          <mxGeometry y="69" width="144" height="22" as="geometry" />
        </mxCell>
        <mxCell id="OZJzlmCqY2gpluyCW24J-829" value="" style="shape=partialRectangle;connectable=0;fillColor=none;top=0;left=0;bottom=0;right=0;align=left;spacingLeft=2;overflow=hidden;fontSize=11;" vertex="1" parent="OZJzlmCqY2gpluyCW24J-828">
          <mxGeometry width="36" height="22" as="geometry">
            <mxRectangle width="36" height="22" as="alternateBounds" />
          </mxGeometry>
        </mxCell>
        <mxCell id="OZJzlmCqY2gpluyCW24J-830" value="SpecializationArea" style="shape=partialRectangle;connectable=0;fillColor=none;top=0;left=0;bottom=0;right=0;align=left;spacingLeft=2;overflow=hidden;fontSize=11;" vertex="1" parent="OZJzlmCqY2gpluyCW24J-828">
          <mxGeometry x="36" width="108" height="22" as="geometry">
            <mxRectangle width="108" height="22" as="alternateBounds" />
          </mxGeometry>
        </mxCell>
        <mxCell id="OZJzlmCqY2gpluyCW24J-1027" style="shape=tableRow;horizontal=0;startSize=0;swimlaneHead=0;swimlaneBody=0;fillColor=none;collapsible=0;dropTarget=0;points=[[0,0.5],[1,0.5]];portConstraint=eastwest;top=0;left=0;right=0;bottom=0;" vertex="1" parent="OZJzlmCqY2gpluyCW24J-821">
          <mxGeometry y="91" width="144" height="22" as="geometry" />
        </mxCell>
        <mxCell id="OZJzlmCqY2gpluyCW24J-1028" value="FK" style="shape=partialRectangle;connectable=0;fillColor=none;top=0;left=0;bottom=0;right=0;align=left;spacingLeft=2;overflow=hidden;fontSize=11;fontStyle=1" vertex="1" parent="OZJzlmCqY2gpluyCW24J-1027">
          <mxGeometry width="36" height="22" as="geometry">
            <mxRectangle width="36" height="22" as="alternateBounds" />
          </mxGeometry>
        </mxCell>
        <mxCell id="OZJzlmCqY2gpluyCW24J-1029" value="ProgramID" style="shape=partialRectangle;connectable=0;fillColor=none;top=0;left=0;bottom=0;right=0;align=left;spacingLeft=2;overflow=hidden;fontSize=11;" vertex="1" parent="OZJzlmCqY2gpluyCW24J-1027">
          <mxGeometry x="36" width="108" height="22" as="geometry">
            <mxRectangle width="108" height="22" as="alternateBounds" />
          </mxGeometry>
        </mxCell>
        <mxCell id="OZJzlmCqY2gpluyCW24J-831" value="DiplomaProgram" style="shape=table;startSize=25;container=1;collapsible=0;childLayout=tableLayout;fixedRows=1;rowLines=1;fontStyle=1;align=center;resizeLast=1;" vertex="1" parent="1">
          <mxGeometry x="287" y="1051" width="138" height="89" as="geometry" />
        </mxCell>
        <mxCell id="OZJzlmCqY2gpluyCW24J-832" style="shape=tableRow;horizontal=0;startSize=0;swimlaneHead=0;swimlaneBody=0;fillColor=none;collapsible=0;dropTarget=0;points=[[0,0.5],[1,0.5]];portConstraint=eastwest;top=0;left=0;right=0;bottom=0;" vertex="1" parent="OZJzlmCqY2gpluyCW24J-831">
          <mxGeometry y="25" width="138" height="21" as="geometry" />
        </mxCell>
        <mxCell id="OZJzlmCqY2gpluyCW24J-833" value="" style="shape=partialRectangle;connectable=0;fillColor=none;top=0;left=0;bottom=0;right=0;align=left;spacingLeft=2;overflow=hidden;fontSize=11;" vertex="1" parent="OZJzlmCqY2gpluyCW24J-832">
          <mxGeometry width="36" height="21" as="geometry">
            <mxRectangle width="36" height="21" as="alternateBounds" />
          </mxGeometry>
        </mxCell>
        <mxCell id="OZJzlmCqY2gpluyCW24J-834" value="DurationMonths" style="shape=partialRectangle;connectable=0;fillColor=none;top=0;left=0;bottom=0;right=0;align=left;spacingLeft=2;overflow=hidden;fontSize=11;" vertex="1" parent="OZJzlmCqY2gpluyCW24J-832">
          <mxGeometry x="36" width="102" height="21" as="geometry">
            <mxRectangle width="102" height="21" as="alternateBounds" />
          </mxGeometry>
        </mxCell>
        <mxCell id="OZJzlmCqY2gpluyCW24J-835" style="shape=tableRow;horizontal=0;startSize=0;swimlaneHead=0;swimlaneBody=0;fillColor=none;collapsible=0;dropTarget=0;points=[[0,0.5],[1,0.5]];portConstraint=eastwest;top=0;left=0;right=0;bottom=0;" vertex="1" parent="OZJzlmCqY2gpluyCW24J-831">
          <mxGeometry y="46" width="138" height="21" as="geometry" />
        </mxCell>
        <mxCell id="OZJzlmCqY2gpluyCW24J-836" value="" style="shape=partialRectangle;connectable=0;fillColor=none;top=0;left=0;bottom=0;right=0;align=left;spacingLeft=2;overflow=hidden;fontSize=11;" vertex="1" parent="OZJzlmCqY2gpluyCW24J-835">
          <mxGeometry width="36" height="21" as="geometry">
            <mxRectangle width="36" height="21" as="alternateBounds" />
          </mxGeometry>
        </mxCell>
        <mxCell id="OZJzlmCqY2gpluyCW24J-837" value="CertificationType" style="shape=partialRectangle;connectable=0;fillColor=none;top=0;left=0;bottom=0;right=0;align=left;spacingLeft=2;overflow=hidden;fontSize=11;" vertex="1" parent="OZJzlmCqY2gpluyCW24J-835">
          <mxGeometry x="36" width="102" height="21" as="geometry">
            <mxRectangle width="102" height="21" as="alternateBounds" />
          </mxGeometry>
        </mxCell>
        <mxCell id="OZJzlmCqY2gpluyCW24J-1030" style="shape=tableRow;horizontal=0;startSize=0;swimlaneHead=0;swimlaneBody=0;fillColor=none;collapsible=0;dropTarget=0;points=[[0,0.5],[1,0.5]];portConstraint=eastwest;top=0;left=0;right=0;bottom=0;" vertex="1" parent="OZJzlmCqY2gpluyCW24J-831">
          <mxGeometry y="67" width="138" height="21" as="geometry" />
        </mxCell>
        <mxCell id="OZJzlmCqY2gpluyCW24J-1031" value="FK" style="shape=partialRectangle;connectable=0;fillColor=none;top=0;left=0;bottom=0;right=0;align=left;spacingLeft=2;overflow=hidden;fontSize=11;fontStyle=1" vertex="1" parent="OZJzlmCqY2gpluyCW24J-1030">
          <mxGeometry width="36" height="21" as="geometry">
            <mxRectangle width="36" height="21" as="alternateBounds" />
          </mxGeometry>
        </mxCell>
        <mxCell id="OZJzlmCqY2gpluyCW24J-1032" value="ProgramID" style="shape=partialRectangle;connectable=0;fillColor=none;top=0;left=0;bottom=0;right=0;align=left;spacingLeft=2;overflow=hidden;fontSize=11;" vertex="1" parent="OZJzlmCqY2gpluyCW24J-1030">
          <mxGeometry x="36" width="102" height="21" as="geometry">
            <mxRectangle width="102" height="21" as="alternateBounds" />
          </mxGeometry>
        </mxCell>
        <mxCell id="OZJzlmCqY2gpluyCW24J-840" value="&lt;b&gt;d&lt;/b&gt;" style="ellipse;whiteSpace=wrap;html=1;" vertex="1" parent="1">
          <mxGeometry x="130" y="940" width="42" height="40" as="geometry" />
        </mxCell>
        <mxCell id="OZJzlmCqY2gpluyCW24J-841" value="" style="endArrow=none;html=1;rounded=0;entryX=0.043;entryY=1.027;entryDx=0;entryDy=0;entryPerimeter=0;exitX=0.411;exitY=0.028;exitDx=0;exitDy=0;exitPerimeter=0;" edge="1" parent="1" source="OZJzlmCqY2gpluyCW24J-840" target="OZJzlmCqY2gpluyCW24J-712">
          <mxGeometry width="50" height="50" relative="1" as="geometry">
            <mxPoint x="370" y="1060" as="sourcePoint" />
            <mxPoint x="420" y="1010" as="targetPoint" />
          </mxGeometry>
        </mxCell>
        <mxCell id="OZJzlmCqY2gpluyCW24J-842" value="" style="endArrow=none;html=1;rounded=0;entryX=0.097;entryY=1.047;entryDx=0;entryDy=0;entryPerimeter=0;exitX=0.571;exitY=0.009;exitDx=0;exitDy=0;exitPerimeter=0;" edge="1" parent="1" source="OZJzlmCqY2gpluyCW24J-840" target="OZJzlmCqY2gpluyCW24J-712">
          <mxGeometry width="50" height="50" relative="1" as="geometry">
            <mxPoint x="230" y="900" as="sourcePoint" />
            <mxPoint x="280" y="850" as="targetPoint" />
          </mxGeometry>
        </mxCell>
        <mxCell id="OZJzlmCqY2gpluyCW24J-844" value="" style="endArrow=none;html=1;rounded=0;entryX=0;entryY=0.5;entryDx=0;entryDy=0;exitX=0.635;exitY=0.02;exitDx=0;exitDy=0;exitPerimeter=0;" edge="1" parent="1" source="OZJzlmCqY2gpluyCW24J-814" target="OZJzlmCqY2gpluyCW24J-840">
          <mxGeometry width="50" height="50" relative="1" as="geometry">
            <mxPoint x="-60" y="990" as="sourcePoint" />
            <mxPoint x="-10" y="940" as="targetPoint" />
          </mxGeometry>
        </mxCell>
        <mxCell id="OZJzlmCqY2gpluyCW24J-847" value="&quot;U&quot;" style="edgeLabel;html=1;align=center;verticalAlign=middle;resizable=0;points=[];" vertex="1" connectable="0" parent="OZJzlmCqY2gpluyCW24J-844">
          <mxGeometry x="-0.0164" y="3" relative="1" as="geometry">
            <mxPoint x="-10" as="offset" />
          </mxGeometry>
        </mxCell>
        <mxCell id="OZJzlmCqY2gpluyCW24J-845" value="" style="endArrow=none;html=1;rounded=0;entryX=0.5;entryY=1;entryDx=0;entryDy=0;exitX=0.75;exitY=0;exitDx=0;exitDy=0;" edge="1" parent="1" source="OZJzlmCqY2gpluyCW24J-821" target="OZJzlmCqY2gpluyCW24J-840">
          <mxGeometry width="50" height="50" relative="1" as="geometry">
            <mxPoint x="-60" y="990" as="sourcePoint" />
            <mxPoint x="-10" y="940" as="targetPoint" />
          </mxGeometry>
        </mxCell>
        <mxCell id="OZJzlmCqY2gpluyCW24J-848" value="&quot;P&quot;" style="edgeLabel;html=1;align=center;verticalAlign=middle;resizable=0;points=[];" vertex="1" connectable="0" parent="OZJzlmCqY2gpluyCW24J-845">
          <mxGeometry x="0.1077" relative="1" as="geometry">
            <mxPoint as="offset" />
          </mxGeometry>
        </mxCell>
        <mxCell id="OZJzlmCqY2gpluyCW24J-846" value="" style="endArrow=none;html=1;rounded=0;entryX=1;entryY=0.5;entryDx=0;entryDy=0;exitX=0.552;exitY=0.009;exitDx=0;exitDy=0;exitPerimeter=0;" edge="1" parent="1" source="OZJzlmCqY2gpluyCW24J-831" target="OZJzlmCqY2gpluyCW24J-840">
          <mxGeometry width="50" height="50" relative="1" as="geometry">
            <mxPoint x="-60" y="990" as="sourcePoint" />
            <mxPoint x="-10" y="940" as="targetPoint" />
          </mxGeometry>
        </mxCell>
        <mxCell id="OZJzlmCqY2gpluyCW24J-849" value="&quot;D&quot;" style="edgeLabel;html=1;align=center;verticalAlign=middle;resizable=0;points=[];" vertex="1" connectable="0" parent="OZJzlmCqY2gpluyCW24J-846">
          <mxGeometry x="-0.0954" y="-1" relative="1" as="geometry">
            <mxPoint x="4" y="-9" as="offset" />
          </mxGeometry>
        </mxCell>
        <mxCell id="OZJzlmCqY2gpluyCW24J-947" value="CoreCourse" style="shape=table;startSize=25;container=1;collapsible=0;childLayout=tableLayout;fixedRows=1;rowLines=1;fontStyle=1;align=center;resizeLast=1;" vertex="1" parent="1">
          <mxGeometry x="100" y="1850" width="124" height="91" as="geometry" />
        </mxCell>
        <mxCell id="OZJzlmCqY2gpluyCW24J-948" style="shape=tableRow;horizontal=0;startSize=0;swimlaneHead=0;swimlaneBody=0;fillColor=none;collapsible=0;dropTarget=0;points=[[0,0.5],[1,0.5]];portConstraint=eastwest;top=0;left=0;right=0;bottom=0;" vertex="1" parent="OZJzlmCqY2gpluyCW24J-947">
          <mxGeometry y="25" width="124" height="22" as="geometry" />
        </mxCell>
        <mxCell id="OZJzlmCqY2gpluyCW24J-949" value="FK" style="shape=partialRectangle;connectable=0;fillColor=none;top=0;left=0;bottom=0;right=0;align=left;spacingLeft=2;overflow=hidden;fontSize=11;fontStyle=1" vertex="1" parent="OZJzlmCqY2gpluyCW24J-948">
          <mxGeometry width="36" height="22" as="geometry">
            <mxRectangle width="36" height="22" as="alternateBounds" />
          </mxGeometry>
        </mxCell>
        <mxCell id="OZJzlmCqY2gpluyCW24J-950" value="CourseID" style="shape=partialRectangle;connectable=0;fillColor=none;top=0;left=0;bottom=0;right=0;align=left;spacingLeft=2;overflow=hidden;fontSize=11;fontStyle=5" vertex="1" parent="OZJzlmCqY2gpluyCW24J-948">
          <mxGeometry x="36" width="88" height="22" as="geometry">
            <mxRectangle width="88" height="22" as="alternateBounds" />
          </mxGeometry>
        </mxCell>
        <mxCell id="OZJzlmCqY2gpluyCW24J-951" style="shape=tableRow;horizontal=0;startSize=0;swimlaneHead=0;swimlaneBody=0;fillColor=none;collapsible=0;dropTarget=0;points=[[0,0.5],[1,0.5]];portConstraint=eastwest;top=0;left=0;right=0;bottom=0;" vertex="1" parent="OZJzlmCqY2gpluyCW24J-947">
          <mxGeometry y="47" width="124" height="22" as="geometry" />
        </mxCell>
        <mxCell id="OZJzlmCqY2gpluyCW24J-952" value="                                                    " style="shape=partialRectangle;connectable=0;fillColor=none;top=0;left=0;bottom=0;right=0;align=left;spacingLeft=2;overflow=hidden;fontSize=11;" vertex="1" parent="OZJzlmCqY2gpluyCW24J-951">
          <mxGeometry width="36" height="22" as="geometry">
            <mxRectangle width="36" height="22" as="alternateBounds" />
          </mxGeometry>
        </mxCell>
        <mxCell id="OZJzlmCqY2gpluyCW24J-953" value="Prerequisites" style="shape=partialRectangle;connectable=0;fillColor=none;top=0;left=0;bottom=0;right=0;align=left;spacingLeft=2;overflow=hidden;fontSize=11;" vertex="1" parent="OZJzlmCqY2gpluyCW24J-951">
          <mxGeometry x="36" width="88" height="22" as="geometry">
            <mxRectangle width="88" height="22" as="alternateBounds" />
          </mxGeometry>
        </mxCell>
        <mxCell id="OZJzlmCqY2gpluyCW24J-954" style="shape=tableRow;horizontal=0;startSize=0;swimlaneHead=0;swimlaneBody=0;fillColor=none;collapsible=0;dropTarget=0;points=[[0,0.5],[1,0.5]];portConstraint=eastwest;top=0;left=0;right=0;bottom=0;" vertex="1" parent="OZJzlmCqY2gpluyCW24J-947">
          <mxGeometry y="69" width="124" height="22" as="geometry" />
        </mxCell>
        <mxCell id="OZJzlmCqY2gpluyCW24J-955" value="" style="shape=partialRectangle;connectable=0;fillColor=none;top=0;left=0;bottom=0;right=0;align=left;spacingLeft=2;overflow=hidden;fontSize=11;" vertex="1" parent="OZJzlmCqY2gpluyCW24J-954">
          <mxGeometry width="36" height="22" as="geometry">
            <mxRectangle width="36" height="22" as="alternateBounds" />
          </mxGeometry>
        </mxCell>
        <mxCell id="OZJzlmCqY2gpluyCW24J-956" value="CoreCredits" style="shape=partialRectangle;connectable=0;fillColor=none;top=0;left=0;bottom=0;right=0;align=left;spacingLeft=2;overflow=hidden;fontSize=11;" vertex="1" parent="OZJzlmCqY2gpluyCW24J-954">
          <mxGeometry x="36" width="88" height="22" as="geometry">
            <mxRectangle width="88" height="22" as="alternateBounds" />
          </mxGeometry>
        </mxCell>
        <mxCell id="OZJzlmCqY2gpluyCW24J-969" value="ElectiveCourse" style="shape=table;startSize=25;container=1;collapsible=0;childLayout=tableLayout;fixedRows=1;rowLines=1;fontStyle=1;align=center;resizeLast=1;" vertex="1" parent="1">
          <mxGeometry x="301" y="1850" width="124" height="91" as="geometry" />
        </mxCell>
        <mxCell id="OZJzlmCqY2gpluyCW24J-970" style="shape=tableRow;horizontal=0;startSize=0;swimlaneHead=0;swimlaneBody=0;fillColor=none;collapsible=0;dropTarget=0;points=[[0,0.5],[1,0.5]];portConstraint=eastwest;top=0;left=0;right=0;bottom=0;" vertex="1" parent="OZJzlmCqY2gpluyCW24J-969">
          <mxGeometry y="25" width="124" height="22" as="geometry" />
        </mxCell>
        <mxCell id="OZJzlmCqY2gpluyCW24J-971" value="FK" style="shape=partialRectangle;connectable=0;fillColor=none;top=0;left=0;bottom=0;right=0;align=left;spacingLeft=2;overflow=hidden;fontSize=11;fontStyle=1" vertex="1" parent="OZJzlmCqY2gpluyCW24J-970">
          <mxGeometry width="36" height="22" as="geometry">
            <mxRectangle width="36" height="22" as="alternateBounds" />
          </mxGeometry>
        </mxCell>
        <mxCell id="OZJzlmCqY2gpluyCW24J-972" value="CourseID" style="shape=partialRectangle;connectable=0;fillColor=none;top=0;left=0;bottom=0;right=0;align=left;spacingLeft=2;overflow=hidden;fontSize=11;fontStyle=5" vertex="1" parent="OZJzlmCqY2gpluyCW24J-970">
          <mxGeometry x="36" width="88" height="22" as="geometry">
            <mxRectangle width="88" height="22" as="alternateBounds" />
          </mxGeometry>
        </mxCell>
        <mxCell id="OZJzlmCqY2gpluyCW24J-973" style="shape=tableRow;horizontal=0;startSize=0;swimlaneHead=0;swimlaneBody=0;fillColor=none;collapsible=0;dropTarget=0;points=[[0,0.5],[1,0.5]];portConstraint=eastwest;top=0;left=0;right=0;bottom=0;" vertex="1" parent="OZJzlmCqY2gpluyCW24J-969">
          <mxGeometry y="47" width="124" height="22" as="geometry" />
        </mxCell>
        <mxCell id="OZJzlmCqY2gpluyCW24J-974" value="                                                    " style="shape=partialRectangle;connectable=0;fillColor=none;top=0;left=0;bottom=0;right=0;align=left;spacingLeft=2;overflow=hidden;fontSize=11;" vertex="1" parent="OZJzlmCqY2gpluyCW24J-973">
          <mxGeometry width="36" height="22" as="geometry">
            <mxRectangle width="36" height="22" as="alternateBounds" />
          </mxGeometry>
        </mxCell>
        <mxCell id="OZJzlmCqY2gpluyCW24J-975" value="ElectiveCredits" style="shape=partialRectangle;connectable=0;fillColor=none;top=0;left=0;bottom=0;right=0;align=left;spacingLeft=2;overflow=hidden;fontSize=11;" vertex="1" parent="OZJzlmCqY2gpluyCW24J-973">
          <mxGeometry x="36" width="88" height="22" as="geometry">
            <mxRectangle width="88" height="22" as="alternateBounds" />
          </mxGeometry>
        </mxCell>
        <mxCell id="OZJzlmCqY2gpluyCW24J-976" style="shape=tableRow;horizontal=0;startSize=0;swimlaneHead=0;swimlaneBody=0;fillColor=none;collapsible=0;dropTarget=0;points=[[0,0.5],[1,0.5]];portConstraint=eastwest;top=0;left=0;right=0;bottom=0;" vertex="1" parent="OZJzlmCqY2gpluyCW24J-969">
          <mxGeometry y="69" width="124" height="22" as="geometry" />
        </mxCell>
        <mxCell id="OZJzlmCqY2gpluyCW24J-977" value="" style="shape=partialRectangle;connectable=0;fillColor=none;top=0;left=0;bottom=0;right=0;align=left;spacingLeft=2;overflow=hidden;fontSize=11;" vertex="1" parent="OZJzlmCqY2gpluyCW24J-976">
          <mxGeometry width="36" height="22" as="geometry">
            <mxRectangle width="36" height="22" as="alternateBounds" />
          </mxGeometry>
        </mxCell>
        <mxCell id="OZJzlmCqY2gpluyCW24J-978" value="ElectiveType " style="shape=partialRectangle;connectable=0;fillColor=none;top=0;left=0;bottom=0;right=0;align=left;spacingLeft=2;overflow=hidden;fontSize=11;" vertex="1" parent="OZJzlmCqY2gpluyCW24J-976">
          <mxGeometry x="36" width="88" height="22" as="geometry">
            <mxRectangle width="88" height="22" as="alternateBounds" />
          </mxGeometry>
        </mxCell>
        <mxCell id="OZJzlmCqY2gpluyCW24J-979" value="&lt;b&gt;d&lt;/b&gt;" style="ellipse;whiteSpace=wrap;html=1;" vertex="1" parent="1">
          <mxGeometry x="241" y="1740" width="42" height="40" as="geometry" />
        </mxCell>
        <mxCell id="OZJzlmCqY2gpluyCW24J-980" value="" style="endArrow=none;html=1;rounded=0;entryX=-0.001;entryY=0.67;entryDx=0;entryDy=0;entryPerimeter=0;exitX=0.75;exitY=0;exitDx=0;exitDy=0;" edge="1" parent="1" source="OZJzlmCqY2gpluyCW24J-947" target="OZJzlmCqY2gpluyCW24J-979">
          <mxGeometry width="50" height="50" relative="1" as="geometry">
            <mxPoint x="187" y="2160" as="sourcePoint" />
            <mxPoint x="237" y="2110" as="targetPoint" />
          </mxGeometry>
        </mxCell>
        <mxCell id="OZJzlmCqY2gpluyCW24J-981" value="" style="endArrow=none;html=1;rounded=0;entryX=0.969;entryY=0.686;entryDx=0;entryDy=0;entryPerimeter=0;exitX=0.149;exitY=0;exitDx=0;exitDy=0;exitPerimeter=0;" edge="1" parent="1" source="OZJzlmCqY2gpluyCW24J-969" target="OZJzlmCqY2gpluyCW24J-979">
          <mxGeometry width="50" height="50" relative="1" as="geometry">
            <mxPoint x="190" y="2150" as="sourcePoint" />
            <mxPoint x="240" y="2100" as="targetPoint" />
          </mxGeometry>
        </mxCell>
        <mxCell id="OZJzlmCqY2gpluyCW24J-982" value="" style="endArrow=none;html=1;rounded=0;entryX=0.489;entryY=0.98;entryDx=0;entryDy=0;entryPerimeter=0;exitX=0.441;exitY=-0.016;exitDx=0;exitDy=0;exitPerimeter=0;" edge="1" parent="1" source="OZJzlmCqY2gpluyCW24J-979" target="OZJzlmCqY2gpluyCW24J-608">
          <mxGeometry width="50" height="50" relative="1" as="geometry">
            <mxPoint x="187" y="2080" as="sourcePoint" />
            <mxPoint x="237" y="2030" as="targetPoint" />
          </mxGeometry>
        </mxCell>
        <mxCell id="OZJzlmCqY2gpluyCW24J-983" value="" style="endArrow=none;html=1;rounded=0;entryX=0.533;entryY=1;entryDx=0;entryDy=0;exitX=0.554;exitY=-0.007;exitDx=0;exitDy=0;entryPerimeter=0;exitPerimeter=0;" edge="1" parent="1" source="OZJzlmCqY2gpluyCW24J-979" target="OZJzlmCqY2gpluyCW24J-608">
          <mxGeometry width="50" height="50" relative="1" as="geometry">
            <mxPoint x="230" y="2100" as="sourcePoint" />
            <mxPoint x="280" y="2050" as="targetPoint" />
          </mxGeometry>
        </mxCell>
        <mxCell id="OZJzlmCqY2gpluyCW24J-984" value="Users" style="shape=table;startSize=25;container=1;collapsible=0;childLayout=tableLayout;fixedRows=1;rowLines=1;fontStyle=1;align=center;resizeLast=1;" vertex="1" parent="1">
          <mxGeometry x="702" y="-96" width="100" height="135" as="geometry" />
        </mxCell>
        <mxCell id="OZJzlmCqY2gpluyCW24J-985" style="shape=tableRow;horizontal=0;startSize=0;swimlaneHead=0;swimlaneBody=0;fillColor=none;collapsible=0;dropTarget=0;points=[[0,0.5],[1,0.5]];portConstraint=eastwest;top=0;left=0;right=0;bottom=0;" vertex="1" parent="OZJzlmCqY2gpluyCW24J-984">
          <mxGeometry y="25" width="100" height="22" as="geometry" />
        </mxCell>
        <mxCell id="OZJzlmCqY2gpluyCW24J-986" value="PK" style="shape=partialRectangle;connectable=0;fillColor=none;top=0;left=0;bottom=0;right=0;align=left;spacingLeft=2;overflow=hidden;fontSize=11;fontStyle=1" vertex="1" parent="OZJzlmCqY2gpluyCW24J-985">
          <mxGeometry width="36" height="22" as="geometry">
            <mxRectangle width="36" height="22" as="alternateBounds" />
          </mxGeometry>
        </mxCell>
        <mxCell id="OZJzlmCqY2gpluyCW24J-987" value="UserID" style="shape=partialRectangle;connectable=0;fillColor=none;top=0;left=0;bottom=0;right=0;align=left;spacingLeft=2;overflow=hidden;fontSize=11;fontStyle=5" vertex="1" parent="OZJzlmCqY2gpluyCW24J-985">
          <mxGeometry x="36" width="64" height="22" as="geometry">
            <mxRectangle width="64" height="22" as="alternateBounds" />
          </mxGeometry>
        </mxCell>
        <mxCell id="OZJzlmCqY2gpluyCW24J-988" style="shape=tableRow;horizontal=0;startSize=0;swimlaneHead=0;swimlaneBody=0;fillColor=none;collapsible=0;dropTarget=0;points=[[0,0.5],[1,0.5]];portConstraint=eastwest;top=0;left=0;right=0;bottom=0;" vertex="1" parent="OZJzlmCqY2gpluyCW24J-984">
          <mxGeometry y="47" width="100" height="22" as="geometry" />
        </mxCell>
        <mxCell id="OZJzlmCqY2gpluyCW24J-989" value="" style="shape=partialRectangle;connectable=0;fillColor=none;top=0;left=0;bottom=0;right=0;align=left;spacingLeft=2;overflow=hidden;fontSize=11;" vertex="1" parent="OZJzlmCqY2gpluyCW24J-988">
          <mxGeometry width="36" height="22" as="geometry">
            <mxRectangle width="36" height="22" as="alternateBounds" />
          </mxGeometry>
        </mxCell>
        <mxCell id="OZJzlmCqY2gpluyCW24J-990" value="Username" style="shape=partialRectangle;connectable=0;fillColor=none;top=0;left=0;bottom=0;right=0;align=left;spacingLeft=2;overflow=hidden;fontSize=11;" vertex="1" parent="OZJzlmCqY2gpluyCW24J-988">
          <mxGeometry x="36" width="64" height="22" as="geometry">
            <mxRectangle width="64" height="22" as="alternateBounds" />
          </mxGeometry>
        </mxCell>
        <mxCell id="OZJzlmCqY2gpluyCW24J-991" style="shape=tableRow;horizontal=0;startSize=0;swimlaneHead=0;swimlaneBody=0;fillColor=none;collapsible=0;dropTarget=0;points=[[0,0.5],[1,0.5]];portConstraint=eastwest;top=0;left=0;right=0;bottom=0;" vertex="1" parent="OZJzlmCqY2gpluyCW24J-984">
          <mxGeometry y="69" width="100" height="22" as="geometry" />
        </mxCell>
        <mxCell id="OZJzlmCqY2gpluyCW24J-992" value="" style="shape=partialRectangle;connectable=0;fillColor=none;top=0;left=0;bottom=0;right=0;align=left;spacingLeft=2;overflow=hidden;fontSize=11;" vertex="1" parent="OZJzlmCqY2gpluyCW24J-991">
          <mxGeometry width="36" height="22" as="geometry">
            <mxRectangle width="36" height="22" as="alternateBounds" />
          </mxGeometry>
        </mxCell>
        <mxCell id="OZJzlmCqY2gpluyCW24J-993" value="Email" style="shape=partialRectangle;connectable=0;fillColor=none;top=0;left=0;bottom=0;right=0;align=left;spacingLeft=2;overflow=hidden;fontSize=11;" vertex="1" parent="OZJzlmCqY2gpluyCW24J-991">
          <mxGeometry x="36" width="64" height="22" as="geometry">
            <mxRectangle width="64" height="22" as="alternateBounds" />
          </mxGeometry>
        </mxCell>
        <mxCell id="OZJzlmCqY2gpluyCW24J-994" style="shape=tableRow;horizontal=0;startSize=0;swimlaneHead=0;swimlaneBody=0;fillColor=none;collapsible=0;dropTarget=0;points=[[0,0.5],[1,0.5]];portConstraint=eastwest;top=0;left=0;right=0;bottom=0;" vertex="1" parent="OZJzlmCqY2gpluyCW24J-984">
          <mxGeometry y="91" width="100" height="22" as="geometry" />
        </mxCell>
        <mxCell id="OZJzlmCqY2gpluyCW24J-995" value="" style="shape=partialRectangle;connectable=0;fillColor=none;top=0;left=0;bottom=0;right=0;align=left;spacingLeft=2;overflow=hidden;fontSize=11;" vertex="1" parent="OZJzlmCqY2gpluyCW24J-994">
          <mxGeometry width="36" height="22" as="geometry">
            <mxRectangle width="36" height="22" as="alternateBounds" />
          </mxGeometry>
        </mxCell>
        <mxCell id="OZJzlmCqY2gpluyCW24J-996" value="RoleID" style="shape=partialRectangle;connectable=0;fillColor=none;top=0;left=0;bottom=0;right=0;align=left;spacingLeft=2;overflow=hidden;fontSize=11;" vertex="1" parent="OZJzlmCqY2gpluyCW24J-994">
          <mxGeometry x="36" width="64" height="22" as="geometry">
            <mxRectangle width="64" height="22" as="alternateBounds" />
          </mxGeometry>
        </mxCell>
        <mxCell id="OZJzlmCqY2gpluyCW24J-997" style="shape=tableRow;horizontal=0;startSize=0;swimlaneHead=0;swimlaneBody=0;fillColor=none;collapsible=0;dropTarget=0;points=[[0,0.5],[1,0.5]];portConstraint=eastwest;top=0;left=0;right=0;bottom=0;" vertex="1" parent="OZJzlmCqY2gpluyCW24J-984">
          <mxGeometry y="113" width="100" height="22" as="geometry" />
        </mxCell>
        <mxCell id="OZJzlmCqY2gpluyCW24J-998" value="FK" style="shape=partialRectangle;connectable=0;fillColor=none;top=0;left=0;bottom=0;right=0;align=left;spacingLeft=2;overflow=hidden;fontSize=11;fontStyle=1" vertex="1" parent="OZJzlmCqY2gpluyCW24J-997">
          <mxGeometry width="36" height="22" as="geometry">
            <mxRectangle width="36" height="22" as="alternateBounds" />
          </mxGeometry>
        </mxCell>
        <mxCell id="OZJzlmCqY2gpluyCW24J-999" value="CollegeID" style="shape=partialRectangle;connectable=0;fillColor=none;top=0;left=0;bottom=0;right=0;align=left;spacingLeft=2;overflow=hidden;fontSize=11;" vertex="1" parent="OZJzlmCqY2gpluyCW24J-997">
          <mxGeometry x="36" width="64" height="22" as="geometry">
            <mxRectangle width="64" height="22" as="alternateBounds" />
          </mxGeometry>
        </mxCell>
        <mxCell id="OZJzlmCqY2gpluyCW24J-1000" value="Roles" style="shape=table;startSize=25;container=1;collapsible=0;childLayout=tableLayout;fixedRows=1;rowLines=1;fontStyle=1;align=center;resizeLast=1;" vertex="1" parent="1">
          <mxGeometry x="950" y="-164" width="100" height="68" as="geometry" />
        </mxCell>
        <mxCell id="OZJzlmCqY2gpluyCW24J-1001" style="shape=tableRow;horizontal=0;startSize=0;swimlaneHead=0;swimlaneBody=0;fillColor=none;collapsible=0;dropTarget=0;points=[[0,0.5],[1,0.5]];portConstraint=eastwest;top=0;left=0;right=0;bottom=0;" vertex="1" parent="OZJzlmCqY2gpluyCW24J-1000">
          <mxGeometry y="25" width="100" height="21" as="geometry" />
        </mxCell>
        <mxCell id="OZJzlmCqY2gpluyCW24J-1002" value="" style="shape=partialRectangle;connectable=0;fillColor=none;top=0;left=0;bottom=0;right=0;align=left;spacingLeft=2;overflow=hidden;fontSize=11;" vertex="1" parent="OZJzlmCqY2gpluyCW24J-1001">
          <mxGeometry width="36" height="21" as="geometry">
            <mxRectangle width="36" height="21" as="alternateBounds" />
          </mxGeometry>
        </mxCell>
        <mxCell id="OZJzlmCqY2gpluyCW24J-1003" value="RoleID" style="shape=partialRectangle;connectable=0;fillColor=none;top=0;left=0;bottom=0;right=0;align=left;spacingLeft=2;overflow=hidden;fontSize=11;" vertex="1" parent="OZJzlmCqY2gpluyCW24J-1001">
          <mxGeometry x="36" width="64" height="21" as="geometry">
            <mxRectangle width="64" height="21" as="alternateBounds" />
          </mxGeometry>
        </mxCell>
        <mxCell id="OZJzlmCqY2gpluyCW24J-1004" style="shape=tableRow;horizontal=0;startSize=0;swimlaneHead=0;swimlaneBody=0;fillColor=none;collapsible=0;dropTarget=0;points=[[0,0.5],[1,0.5]];portConstraint=eastwest;top=0;left=0;right=0;bottom=0;" vertex="1" parent="OZJzlmCqY2gpluyCW24J-1000">
          <mxGeometry y="46" width="100" height="21" as="geometry" />
        </mxCell>
        <mxCell id="OZJzlmCqY2gpluyCW24J-1005" value="" style="shape=partialRectangle;connectable=0;fillColor=none;top=0;left=0;bottom=0;right=0;align=left;spacingLeft=2;overflow=hidden;fontSize=11;" vertex="1" parent="OZJzlmCqY2gpluyCW24J-1004">
          <mxGeometry width="36" height="21" as="geometry">
            <mxRectangle width="36" height="21" as="alternateBounds" />
          </mxGeometry>
        </mxCell>
        <mxCell id="OZJzlmCqY2gpluyCW24J-1006" value="RoleName" style="shape=partialRectangle;connectable=0;fillColor=none;top=0;left=0;bottom=0;right=0;align=left;spacingLeft=2;overflow=hidden;fontSize=11;" vertex="1" parent="OZJzlmCqY2gpluyCW24J-1004">
          <mxGeometry x="36" width="64" height="21" as="geometry">
            <mxRectangle width="64" height="21" as="alternateBounds" />
          </mxGeometry>
        </mxCell>
        <mxCell id="OZJzlmCqY2gpluyCW24J-1007" value="Credentials" style="shape=table;startSize=25;container=1;collapsible=0;childLayout=tableLayout;fixedRows=1;rowLines=1;fontStyle=1;align=center;resizeLast=1;" vertex="1" parent="1">
          <mxGeometry x="950" y="-20" width="108" height="91" as="geometry" />
        </mxCell>
        <mxCell id="OZJzlmCqY2gpluyCW24J-1008" style="shape=tableRow;horizontal=0;startSize=0;swimlaneHead=0;swimlaneBody=0;fillColor=none;collapsible=0;dropTarget=0;points=[[0,0.5],[1,0.5]];portConstraint=eastwest;top=0;left=0;right=0;bottom=0;" vertex="1" parent="OZJzlmCqY2gpluyCW24J-1007">
          <mxGeometry y="25" width="108" height="22" as="geometry" />
        </mxCell>
        <mxCell id="OZJzlmCqY2gpluyCW24J-1009" value="" style="shape=partialRectangle;connectable=0;fillColor=none;top=0;left=0;bottom=0;right=0;align=left;spacingLeft=2;overflow=hidden;fontSize=11;" vertex="1" parent="OZJzlmCqY2gpluyCW24J-1008">
          <mxGeometry width="36" height="22" as="geometry">
            <mxRectangle width="36" height="22" as="alternateBounds" />
          </mxGeometry>
        </mxCell>
        <mxCell id="OZJzlmCqY2gpluyCW24J-1010" value="CredentialID" style="shape=partialRectangle;connectable=0;fillColor=none;top=0;left=0;bottom=0;right=0;align=left;spacingLeft=2;overflow=hidden;fontSize=11;" vertex="1" parent="OZJzlmCqY2gpluyCW24J-1008">
          <mxGeometry x="36" width="72" height="22" as="geometry">
            <mxRectangle width="72" height="22" as="alternateBounds" />
          </mxGeometry>
        </mxCell>
        <mxCell id="OZJzlmCqY2gpluyCW24J-1011" style="shape=tableRow;horizontal=0;startSize=0;swimlaneHead=0;swimlaneBody=0;fillColor=none;collapsible=0;dropTarget=0;points=[[0,0.5],[1,0.5]];portConstraint=eastwest;top=0;left=0;right=0;bottom=0;" vertex="1" parent="OZJzlmCqY2gpluyCW24J-1007">
          <mxGeometry y="47" width="108" height="22" as="geometry" />
        </mxCell>
        <mxCell id="OZJzlmCqY2gpluyCW24J-1012" value="" style="shape=partialRectangle;connectable=0;fillColor=none;top=0;left=0;bottom=0;right=0;align=left;spacingLeft=2;overflow=hidden;fontSize=11;" vertex="1" parent="OZJzlmCqY2gpluyCW24J-1011">
          <mxGeometry width="36" height="22" as="geometry">
            <mxRectangle width="36" height="22" as="alternateBounds" />
          </mxGeometry>
        </mxCell>
        <mxCell id="OZJzlmCqY2gpluyCW24J-1013" value="UserID" style="shape=partialRectangle;connectable=0;fillColor=none;top=0;left=0;bottom=0;right=0;align=left;spacingLeft=2;overflow=hidden;fontSize=11;" vertex="1" parent="OZJzlmCqY2gpluyCW24J-1011">
          <mxGeometry x="36" width="72" height="22" as="geometry">
            <mxRectangle width="72" height="22" as="alternateBounds" />
          </mxGeometry>
        </mxCell>
        <mxCell id="OZJzlmCqY2gpluyCW24J-1014" style="shape=tableRow;horizontal=0;startSize=0;swimlaneHead=0;swimlaneBody=0;fillColor=none;collapsible=0;dropTarget=0;points=[[0,0.5],[1,0.5]];portConstraint=eastwest;top=0;left=0;right=0;bottom=0;" vertex="1" parent="OZJzlmCqY2gpluyCW24J-1007">
          <mxGeometry y="69" width="108" height="22" as="geometry" />
        </mxCell>
        <mxCell id="OZJzlmCqY2gpluyCW24J-1015" value="" style="shape=partialRectangle;connectable=0;fillColor=none;top=0;left=0;bottom=0;right=0;align=left;spacingLeft=2;overflow=hidden;fontSize=11;" vertex="1" parent="OZJzlmCqY2gpluyCW24J-1014">
          <mxGeometry width="36" height="22" as="geometry">
            <mxRectangle width="36" height="22" as="alternateBounds" />
          </mxGeometry>
        </mxCell>
        <mxCell id="OZJzlmCqY2gpluyCW24J-1016" value="Password" style="shape=partialRectangle;connectable=0;fillColor=none;top=0;left=0;bottom=0;right=0;align=left;spacingLeft=2;overflow=hidden;fontSize=11;" vertex="1" parent="OZJzlmCqY2gpluyCW24J-1014">
          <mxGeometry x="36" width="72" height="22" as="geometry">
            <mxRectangle width="72" height="22" as="alternateBounds" />
          </mxGeometry>
        </mxCell>
        <mxCell id="OZJzlmCqY2gpluyCW24J-1017" value="has" style="curved=0;startArrow=ERmandOne;startSize=10;;endArrow=ERmany;endSize=10;;rounded=0;entryX=0;entryY=0.5;entryDx=0;entryDy=0;exitX=0.364;exitY=0.002;exitDx=0;exitDy=0;exitPerimeter=0;" edge="1" parent="1" source="OZJzlmCqY2gpluyCW24J-984" target="OZJzlmCqY2gpluyCW24J-1001">
          <mxGeometry relative="1" as="geometry">
            <Array as="points">
              <mxPoint x="738" y="-130" />
            </Array>
            <mxPoint x="730" y="-90" as="sourcePoint" />
            <mxPoint x="590" y="-20" as="targetPoint" />
          </mxGeometry>
        </mxCell>
        <mxCell id="OZJzlmCqY2gpluyCW24J-1018" value="has" style="curved=0;startArrow=ERmandOne;startSize=10;;endArrow=ERmany;endSize=10;;exitX=1.005;exitY=0.12;entryX=-0.003;entryY=0.682;rounded=0;entryDx=0;entryDy=0;entryPerimeter=0;exitDx=0;exitDy=0;exitPerimeter=0;" edge="1" parent="1" source="OZJzlmCqY2gpluyCW24J-997" target="OZJzlmCqY2gpluyCW24J-1008">
          <mxGeometry relative="1" as="geometry">
            <Array as="points" />
          </mxGeometry>
        </mxCell>
        <mxCell id="OZJzlmCqY2gpluyCW24J-1020" value="belongs to" style="curved=0;startArrow=ERmandOne;startSize=10;;endArrow=ERmany;endSize=10;;exitX=1.025;exitY=0.722;rounded=0;exitDx=0;exitDy=0;exitPerimeter=0;" edge="1" parent="1" source="OZJzlmCqY2gpluyCW24J-558">
          <mxGeometry relative="1" as="geometry">
            <Array as="points">
              <mxPoint x="470" y="279" />
              <mxPoint x="470" y="-22" />
            </Array>
            <mxPoint x="500" y="140" as="sourcePoint" />
            <mxPoint x="700" y="-21.777750651041668" as="targetPoint" />
          </mxGeometry>
        </mxCell>
        <mxCell id="OZJzlmCqY2gpluyCW24J-1068" value="CollegeStaff" style="shape=table;startSize=25;container=1;collapsible=0;childLayout=tableLayout;fixedRows=1;rowLines=1;fontStyle=1;align=center;resizeLast=1;" vertex="1" parent="1">
          <mxGeometry x="1118" y="450" width="126" height="135" as="geometry" />
        </mxCell>
        <mxCell id="OZJzlmCqY2gpluyCW24J-1069" style="shape=tableRow;horizontal=0;startSize=0;swimlaneHead=0;swimlaneBody=0;fillColor=none;collapsible=0;dropTarget=0;points=[[0,0.5],[1,0.5]];portConstraint=eastwest;top=0;left=0;right=0;bottom=0;" vertex="1" parent="OZJzlmCqY2gpluyCW24J-1068">
          <mxGeometry y="25" width="126" height="22" as="geometry" />
        </mxCell>
        <mxCell id="OZJzlmCqY2gpluyCW24J-1070" value="PK" style="shape=partialRectangle;connectable=0;fillColor=none;top=0;left=0;bottom=0;right=0;align=left;spacingLeft=2;overflow=hidden;fontSize=11;" vertex="1" parent="OZJzlmCqY2gpluyCW24J-1069">
          <mxGeometry width="36" height="22" as="geometry">
            <mxRectangle width="36" height="22" as="alternateBounds" />
          </mxGeometry>
        </mxCell>
        <mxCell id="OZJzlmCqY2gpluyCW24J-1071" value="StaffID" style="shape=partialRectangle;connectable=0;fillColor=none;top=0;left=0;bottom=0;right=0;align=left;spacingLeft=2;overflow=hidden;fontSize=11;fontStyle=5" vertex="1" parent="OZJzlmCqY2gpluyCW24J-1069">
          <mxGeometry x="36" width="90" height="22" as="geometry">
            <mxRectangle width="90" height="22" as="alternateBounds" />
          </mxGeometry>
        </mxCell>
        <mxCell id="OZJzlmCqY2gpluyCW24J-1072" style="shape=tableRow;horizontal=0;startSize=0;swimlaneHead=0;swimlaneBody=0;fillColor=none;collapsible=0;dropTarget=0;points=[[0,0.5],[1,0.5]];portConstraint=eastwest;top=0;left=0;right=0;bottom=0;" vertex="1" parent="OZJzlmCqY2gpluyCW24J-1068">
          <mxGeometry y="47" width="126" height="22" as="geometry" />
        </mxCell>
        <mxCell id="OZJzlmCqY2gpluyCW24J-1073" value="" style="shape=partialRectangle;connectable=0;fillColor=none;top=0;left=0;bottom=0;right=0;align=left;spacingLeft=2;overflow=hidden;fontSize=11;" vertex="1" parent="OZJzlmCqY2gpluyCW24J-1072">
          <mxGeometry width="36" height="22" as="geometry">
            <mxRectangle width="36" height="22" as="alternateBounds" />
          </mxGeometry>
        </mxCell>
        <mxCell id="OZJzlmCqY2gpluyCW24J-1074" value="Name" style="shape=partialRectangle;connectable=0;fillColor=none;top=0;left=0;bottom=0;right=0;align=left;spacingLeft=2;overflow=hidden;fontSize=11;" vertex="1" parent="OZJzlmCqY2gpluyCW24J-1072">
          <mxGeometry x="36" width="90" height="22" as="geometry">
            <mxRectangle width="90" height="22" as="alternateBounds" />
          </mxGeometry>
        </mxCell>
        <mxCell id="OZJzlmCqY2gpluyCW24J-1075" style="shape=tableRow;horizontal=0;startSize=0;swimlaneHead=0;swimlaneBody=0;fillColor=none;collapsible=0;dropTarget=0;points=[[0,0.5],[1,0.5]];portConstraint=eastwest;top=0;left=0;right=0;bottom=0;" vertex="1" parent="OZJzlmCqY2gpluyCW24J-1068">
          <mxGeometry y="69" width="126" height="22" as="geometry" />
        </mxCell>
        <mxCell id="OZJzlmCqY2gpluyCW24J-1076" value="" style="shape=partialRectangle;connectable=0;fillColor=none;top=0;left=0;bottom=0;right=0;align=left;spacingLeft=2;overflow=hidden;fontSize=11;" vertex="1" parent="OZJzlmCqY2gpluyCW24J-1075">
          <mxGeometry width="36" height="22" as="geometry">
            <mxRectangle width="36" height="22" as="alternateBounds" />
          </mxGeometry>
        </mxCell>
        <mxCell id="OZJzlmCqY2gpluyCW24J-1077" value="Address" style="shape=partialRectangle;connectable=0;fillColor=none;top=0;left=0;bottom=0;right=0;align=left;spacingLeft=2;overflow=hidden;fontSize=11;" vertex="1" parent="OZJzlmCqY2gpluyCW24J-1075">
          <mxGeometry x="36" width="90" height="22" as="geometry">
            <mxRectangle width="90" height="22" as="alternateBounds" />
          </mxGeometry>
        </mxCell>
        <mxCell id="OZJzlmCqY2gpluyCW24J-1078" style="shape=tableRow;horizontal=0;startSize=0;swimlaneHead=0;swimlaneBody=0;fillColor=none;collapsible=0;dropTarget=0;points=[[0,0.5],[1,0.5]];portConstraint=eastwest;top=0;left=0;right=0;bottom=0;" vertex="1" parent="OZJzlmCqY2gpluyCW24J-1068">
          <mxGeometry y="91" width="126" height="22" as="geometry" />
        </mxCell>
        <mxCell id="OZJzlmCqY2gpluyCW24J-1079" value="" style="shape=partialRectangle;connectable=0;fillColor=none;top=0;left=0;bottom=0;right=0;align=left;spacingLeft=2;overflow=hidden;fontSize=11;" vertex="1" parent="OZJzlmCqY2gpluyCW24J-1078">
          <mxGeometry width="36" height="22" as="geometry">
            <mxRectangle width="36" height="22" as="alternateBounds" />
          </mxGeometry>
        </mxCell>
        <mxCell id="OZJzlmCqY2gpluyCW24J-1080" value="Role" style="shape=partialRectangle;connectable=0;fillColor=none;top=0;left=0;bottom=0;right=0;align=left;spacingLeft=2;overflow=hidden;fontSize=11;" vertex="1" parent="OZJzlmCqY2gpluyCW24J-1078">
          <mxGeometry x="36" width="90" height="22" as="geometry">
            <mxRectangle width="90" height="22" as="alternateBounds" />
          </mxGeometry>
        </mxCell>
        <mxCell id="OZJzlmCqY2gpluyCW24J-1081" style="shape=tableRow;horizontal=0;startSize=0;swimlaneHead=0;swimlaneBody=0;fillColor=none;collapsible=0;dropTarget=0;points=[[0,0.5],[1,0.5]];portConstraint=eastwest;top=0;left=0;right=0;bottom=0;" vertex="1" parent="OZJzlmCqY2gpluyCW24J-1068">
          <mxGeometry y="113" width="126" height="22" as="geometry" />
        </mxCell>
        <mxCell id="OZJzlmCqY2gpluyCW24J-1082" value="FK" style="shape=partialRectangle;connectable=0;fillColor=none;top=0;left=0;bottom=0;right=0;align=left;spacingLeft=2;overflow=hidden;fontSize=11;" vertex="1" parent="OZJzlmCqY2gpluyCW24J-1081">
          <mxGeometry width="36" height="22" as="geometry">
            <mxRectangle width="36" height="22" as="alternateBounds" />
          </mxGeometry>
        </mxCell>
        <mxCell id="OZJzlmCqY2gpluyCW24J-1083" value="CollegeID" style="shape=partialRectangle;connectable=0;fillColor=none;top=0;left=0;bottom=0;right=0;align=left;spacingLeft=2;overflow=hidden;fontSize=11;fontStyle=0" vertex="1" parent="OZJzlmCqY2gpluyCW24J-1081">
          <mxGeometry x="36" width="90" height="22" as="geometry">
            <mxRectangle width="90" height="22" as="alternateBounds" />
          </mxGeometry>
        </mxCell>
        <mxCell id="OZJzlmCqY2gpluyCW24J-1084" value="" style="endArrow=none;html=1;rounded=0;entryX=0.5;entryY=1;entryDx=0;entryDy=0;exitX=0.497;exitY=-0.008;exitDx=0;exitDy=0;exitPerimeter=0;" edge="1" parent="1" source="OZJzlmCqY2gpluyCW24J-1068" target="OZJzlmCqY2gpluyCW24J-761">
          <mxGeometry width="50" height="50" relative="1" as="geometry">
            <mxPoint x="1181" y="450" as="sourcePoint" />
            <mxPoint x="1230" y="430" as="targetPoint" />
          </mxGeometry>
        </mxCell>
        <mxCell id="OZJzlmCqY2gpluyCW24J-1085" value="belong" style="curved=0;startArrow=ERmandOne;startSize=10;;endArrow=ERmany;endSize=10;;entryX=0.421;entryY=0.949;rounded=0;entryDx=0;entryDy=0;entryPerimeter=0;exitX=1;exitY=0.5;exitDx=0;exitDy=0;" edge="1" parent="1" source="OZJzlmCqY2gpluyCW24J-570" target="OZJzlmCqY2gpluyCW24J-1081">
          <mxGeometry relative="1" as="geometry">
            <Array as="points">
              <mxPoint x="870" y="360" />
              <mxPoint x="870" y="660" />
              <mxPoint x="1170" y="660" />
            </Array>
            <mxPoint x="600" y="190" as="sourcePoint" />
            <mxPoint x="775" y="151" as="targetPoint" />
          </mxGeometry>
        </mxCell>
        <mxCell id="OZJzlmCqY2gpluyCW24J-1086" value="manage" style="curved=0;startArrow=ERmandOne;startSize=10;;endArrow=ERmany;endSize=10;;entryX=1;entryY=0.5;rounded=0;entryDx=0;entryDy=0;exitX=0.673;exitY=0.966;exitDx=0;exitDy=0;exitPerimeter=0;" edge="1" parent="1" source="OZJzlmCqY2gpluyCW24J-1081" target="OZJzlmCqY2gpluyCW24J-652">
          <mxGeometry relative="1" as="geometry">
            <Array as="points">
              <mxPoint x="1203" y="1664" />
            </Array>
            <mxPoint x="1210" y="630" as="sourcePoint" />
            <mxPoint x="1032" y="1887" as="targetPoint" />
          </mxGeometry>
        </mxCell>
        <mxCell id="OZJzlmCqY2gpluyCW24J-1087" value="manage" style="curved=0;startArrow=ERmandOne;startSize=10;;endArrow=ERmany;endSize=10;;entryX=0.995;entryY=0.076;rounded=0;entryDx=0;entryDy=0;exitX=0.067;exitY=0.979;exitDx=0;exitDy=0;exitPerimeter=0;entryPerimeter=0;" edge="1" parent="1" source="OZJzlmCqY2gpluyCW24J-1081" target="OZJzlmCqY2gpluyCW24J-699">
          <mxGeometry relative="1" as="geometry">
            <Array as="points">
              <mxPoint x="1126" y="712" />
            </Array>
            <mxPoint x="960" y="750" as="sourcePoint" />
            <mxPoint x="633" y="1206" as="targetPoint" />
          </mxGeometry>
        </mxCell>
      </root>
    </mxGraphModel>
  </diagram>
</mxfile>
